<svg xmlns="http://www.w3.org/2000/svg" xmlns:xlink="http://www.w3.org/1999/xlink" contentStyleType="text/css" height="687px" preserveAspectRatio="none" style="width:757px;height:687px;background:#FFFFFF;" version="1.1" viewBox="0 0 757 687" width="757px" zoomAndPan="magnify"><defs/><g><!--class Servicio--><g id="elem_Servicio"><rect codeLine="1" fill="#F1F1F1" height="48" id="Servicio" rx="2.5" ry="2.5" style="stroke:#181818;stroke-width:0.5;" width="87.583" x="242" y="7"/><ellipse cx="257" cy="23" fill="#ADD1B2" rx="11" ry="11" style="stroke:#181818;stroke-width:1.0;"/><path d="M259.9688,28.6406 Q259.3906,28.9375 258.75,29.0781 Q258.1094,29.2344 257.4063,29.2344 Q254.9063,29.2344 253.5781,27.5938 Q252.2656,25.9375 252.2656,22.8125 Q252.2656,19.6875 253.5781,18.0313 Q254.9063,16.375 257.4063,16.375 Q258.1094,16.375 258.75,16.5313 Q259.4063,16.6875 259.9688,16.9844 L259.9688,19.7031 Q259.3438,19.125 258.75,18.8594 Q258.1563,18.5781 257.5313,18.5781 Q256.1875,18.5781 255.5,19.6563 Q254.8125,20.7188 254.8125,22.8125 Q254.8125,24.9063 255.5,25.9844 Q256.1875,27.0469 257.5313,27.0469 Q258.1563,27.0469 258.75,26.7813 Q259.3438,26.5 259.9688,25.9219 L259.9688,28.6406 Z " fill="#000000"/><text fill="#000000" font-family="sans-serif" font-size="14" lengthAdjust="spacing" textLength="55.583" x="271" y="27.8467">Servicio</text><line style="stroke:#181818;stroke-width:0.5;" x1="243" x2="328.583" y1="39" y2="39"/><line style="stroke:#181818;stroke-width:0.5;" x1="243" x2="328.583" y1="47" y2="47"/></g><!--class Persona--><g id="elem_Persona"><rect codeLine="4" fill="#F1F1F1" height="48" id="Persona" rx="2.5" ry="2.5" style="stroke:#181818;stroke-width:0.5;" width="88.123" x="108" y="132"/><ellipse cx="123" cy="148" fill="#ADD1B2" rx="11" ry="11" style="stroke:#181818;stroke-width:1.0;"/><path d="M125.9688,153.6406 Q125.3906,153.9375 124.75,154.0781 Q124.1094,154.2344 123.4063,154.2344 Q120.9063,154.2344 119.5781,152.5938 Q118.2656,150.9375 118.2656,147.8125 Q118.2656,144.6875 119.5781,143.0313 Q120.9063,141.375 123.4063,141.375 Q124.1094,141.375 124.75,141.5313 Q125.4063,141.6875 125.9688,141.9844 L125.9688,144.7031 Q125.3438,144.125 124.75,143.8594 Q124.1563,143.5781 123.5313,143.5781 Q122.1875,143.5781 121.5,144.6563 Q120.8125,145.7188 120.8125,147.8125 Q120.8125,149.9063 121.5,150.9844 Q122.1875,152.0469 123.5313,152.0469 Q124.1563,152.0469 124.75,151.7813 Q125.3438,151.5 125.9688,150.9219 L125.9688,153.6406 Z " fill="#000000"/><text fill="#000000" font-family="sans-serif" font-size="14" lengthAdjust="spacing" textLength="56.123" x="137" y="152.8467">Persona</text><line style="stroke:#181818;stroke-width:0.5;" x1="109" x2="195.123" y1="164" y2="164"/><line style="stroke:#181818;stroke-width:0.5;" x1="109" x2="195.123" y1="172" y2="172"/></g><!--class Pasajero--><g id="elem_Pasajero"><rect codeLine="7" fill="#F1F1F1" height="48" id="Pasajero" rx="2.5" ry="2.5" style="stroke:#181818;stroke-width:0.5;" width="91.7188" x="7" y="257"/><ellipse cx="22" cy="273" fill="#ADD1B2" rx="11" ry="11" style="stroke:#181818;stroke-width:1.0;"/><path d="M24.9688,278.6406 Q24.3906,278.9375 23.75,279.0781 Q23.1094,279.2344 22.4063,279.2344 Q19.9063,279.2344 18.5781,277.5938 Q17.2656,275.9375 17.2656,272.8125 Q17.2656,269.6875 18.5781,268.0313 Q19.9063,266.375 22.4063,266.375 Q23.1094,266.375 23.75,266.5313 Q24.4063,266.6875 24.9688,266.9844 L24.9688,269.7031 Q24.3438,269.125 23.75,268.8594 Q23.1563,268.5781 22.5313,268.5781 Q21.1875,268.5781 20.5,269.6563 Q19.8125,270.7188 19.8125,272.8125 Q19.8125,274.9063 20.5,275.9844 Q21.1875,277.0469 22.5313,277.0469 Q23.1563,277.0469 23.75,276.7813 Q24.3438,276.5 24.9688,275.9219 L24.9688,278.6406 Z " fill="#000000"/><text fill="#000000" font-family="sans-serif" font-size="14" lengthAdjust="spacing" textLength="59.7188" x="36" y="277.8467">Pasajero</text><line style="stroke:#181818;stroke-width:0.5;" x1="8" x2="97.7188" y1="289" y2="289"/><line style="stroke:#181818;stroke-width:0.5;" x1="8" x2="97.7188" y1="297" y2="297"/></g><!--class Conductor--><g id="elem_Conductor"><rect codeLine="10" fill="#F1F1F1" height="48" id="Conductor" rx="2.5" ry="2.5" style="stroke:#181818;stroke-width:0.5;" width="104.4814" x="134" y="257"/><ellipse cx="149" cy="273" fill="#ADD1B2" rx="11" ry="11" style="stroke:#181818;stroke-width:1.0;"/><path d="M151.9688,278.6406 Q151.3906,278.9375 150.75,279.0781 Q150.1094,279.2344 149.4063,279.2344 Q146.9063,279.2344 145.5781,277.5938 Q144.2656,275.9375 144.2656,272.8125 Q144.2656,269.6875 145.5781,268.0313 Q146.9063,266.375 149.4063,266.375 Q150.1094,266.375 150.75,266.5313 Q151.4063,266.6875 151.9688,266.9844 L151.9688,269.7031 Q151.3438,269.125 150.75,268.8594 Q150.1563,268.5781 149.5313,268.5781 Q148.1875,268.5781 147.5,269.6563 Q146.8125,270.7188 146.8125,272.8125 Q146.8125,274.9063 147.5,275.9844 Q148.1875,277.0469 149.5313,277.0469 Q150.1563,277.0469 150.75,276.7813 Q151.3438,276.5 151.9688,275.9219 L151.9688,278.6406 Z " fill="#000000"/><text fill="#000000" font-family="sans-serif" font-size="14" lengthAdjust="spacing" textLength="72.4814" x="163" y="277.8467">Conductor</text><line style="stroke:#181818;stroke-width:0.5;" x1="135" x2="237.4814" y1="289" y2="289"/><line style="stroke:#181818;stroke-width:0.5;" x1="135" x2="237.4814" y1="297" y2="297"/></g><!--class SistemaDePago--><g id="elem_SistemaDePago"><rect codeLine="13" fill="#F1F1F1" height="48" id="SistemaDePago" rx="2.5" ry="2.5" style="stroke:#181818;stroke-width:0.5;" width="142.2568" x="554" y="132"/><ellipse cx="569" cy="148" fill="#ADD1B2" rx="11" ry="11" style="stroke:#181818;stroke-width:1.0;"/><path d="M571.9688,153.6406 Q571.3906,153.9375 570.75,154.0781 Q570.1094,154.2344 569.4063,154.2344 Q566.9063,154.2344 565.5781,152.5938 Q564.2656,150.9375 564.2656,147.8125 Q564.2656,144.6875 565.5781,143.0313 Q566.9063,141.375 569.4063,141.375 Q570.1094,141.375 570.75,141.5313 Q571.4063,141.6875 571.9688,141.9844 L571.9688,144.7031 Q571.3438,144.125 570.75,143.8594 Q570.1563,143.5781 569.5313,143.5781 Q568.1875,143.5781 567.5,144.6563 Q566.8125,145.7188 566.8125,147.8125 Q566.8125,149.9063 567.5,150.9844 Q568.1875,152.0469 569.5313,152.0469 Q570.1563,152.0469 570.75,151.7813 Q571.3438,151.5 571.9688,150.9219 L571.9688,153.6406 Z " fill="#000000"/><text fill="#000000" font-family="sans-serif" font-size="14" lengthAdjust="spacing" textLength="110.2568" x="583" y="152.8467">SistemaDePago</text><line style="stroke:#181818;stroke-width:0.5;" x1="555" x2="695.2568" y1="164" y2="164"/><line style="stroke:#181818;stroke-width:0.5;" x1="555" x2="695.2568" y1="172" y2="172"/></g><!--class Tarifa--><g id="elem_Tarifa"><rect codeLine="16" fill="#F1F1F1" height="48" id="Tarifa" rx="2.5" ry="2.5" style="stroke:#181818;stroke-width:0.5;" width="72.2842" x="633" y="382"/><ellipse cx="648" cy="398" fill="#ADD1B2" rx="11" ry="11" style="stroke:#181818;stroke-width:1.0;"/><path d="M650.9688,403.6406 Q650.3906,403.9375 649.75,404.0781 Q649.1094,404.2344 648.4063,404.2344 Q645.9063,404.2344 644.5781,402.5938 Q643.2656,400.9375 643.2656,397.8125 Q643.2656,394.6875 644.5781,393.0313 Q645.9063,391.375 648.4063,391.375 Q649.1094,391.375 649.75,391.5313 Q650.4063,391.6875 650.9688,391.9844 L650.9688,394.7031 Q650.3438,394.125 649.75,393.8594 Q649.1563,393.5781 648.5313,393.5781 Q647.1875,393.5781 646.5,394.6563 Q645.8125,395.7188 645.8125,397.8125 Q645.8125,399.9063 646.5,400.9844 Q647.1875,402.0469 648.5313,402.0469 Q649.1563,402.0469 649.75,401.7813 Q650.3438,401.5 650.9688,400.9219 L650.9688,403.6406 Z " fill="#000000"/><text fill="#000000" font-family="sans-serif" font-size="14" lengthAdjust="spacing" textLength="40.2842" x="662" y="402.8467">Tarifa</text><line style="stroke:#181818;stroke-width:0.5;" x1="634" x2="704.2842" y1="414" y2="414"/><line style="stroke:#181818;stroke-width:0.5;" x1="634" x2="704.2842" y1="422" y2="422"/></g><!--class Abono--><g id="elem_Abono"><rect codeLine="19" fill="#F1F1F1" height="48" id="Abono" rx="2.5" ry="2.5" style="stroke:#181818;stroke-width:0.5;" width="76.4678" x="550" y="257"/><ellipse cx="565" cy="273" fill="#ADD1B2" rx="11" ry="11" style="stroke:#181818;stroke-width:1.0;"/><path d="M567.9688,278.6406 Q567.3906,278.9375 566.75,279.0781 Q566.1094,279.2344 565.4063,279.2344 Q562.9063,279.2344 561.5781,277.5938 Q560.2656,275.9375 560.2656,272.8125 Q560.2656,269.6875 561.5781,268.0313 Q562.9063,266.375 565.4063,266.375 Q566.1094,266.375 566.75,266.5313 Q567.4063,266.6875 567.9688,266.9844 L567.9688,269.7031 Q567.3438,269.125 566.75,268.8594 Q566.1563,268.5781 565.5313,268.5781 Q564.1875,268.5781 563.5,269.6563 Q562.8125,270.7188 562.8125,272.8125 Q562.8125,274.9063 563.5,275.9844 Q564.1875,277.0469 565.5313,277.0469 Q566.1563,277.0469 566.75,276.7813 Q567.3438,276.5 567.9688,275.9219 L567.9688,278.6406 Z " fill="#000000"/><text fill="#000000" font-family="sans-serif" font-size="14" lengthAdjust="spacing" textLength="44.4678" x="579" y="277.8467">Abono</text><line style="stroke:#181818;stroke-width:0.5;" x1="551" x2="625.4678" y1="289" y2="289"/><line style="stroke:#181818;stroke-width:0.5;" x1="551" x2="625.4678" y1="297" y2="297"/></g><!--class Flota--><g id="elem_Flota"><rect codeLine="22" fill="#F1F1F1" height="48" id="Flota" rx="2.5" ry="2.5" style="stroke:#181818;stroke-width:0.5;" width="66.5762" x="273.5" y="257"/><ellipse cx="288.5" cy="273" fill="#ADD1B2" rx="11" ry="11" style="stroke:#181818;stroke-width:1.0;"/><path d="M291.4688,278.6406 Q290.8906,278.9375 290.25,279.0781 Q289.6094,279.2344 288.9063,279.2344 Q286.4063,279.2344 285.0781,277.5938 Q283.7656,275.9375 283.7656,272.8125 Q283.7656,269.6875 285.0781,268.0313 Q286.4063,266.375 288.9063,266.375 Q289.6094,266.375 290.25,266.5313 Q290.9063,266.6875 291.4688,266.9844 L291.4688,269.7031 Q290.8438,269.125 290.25,268.8594 Q289.6563,268.5781 289.0313,268.5781 Q287.6875,268.5781 287,269.6563 Q286.3125,270.7188 286.3125,272.8125 Q286.3125,274.9063 287,275.9844 Q287.6875,277.0469 289.0313,277.0469 Q289.6563,277.0469 290.25,276.7813 Q290.8438,276.5 291.4688,275.9219 L291.4688,278.6406 Z " fill="#000000"/><text fill="#000000" font-family="sans-serif" font-size="14" lengthAdjust="spacing" textLength="34.5762" x="302.5" y="277.8467">Flota</text><line style="stroke:#181818;stroke-width:0.5;" x1="274.5" x2="339.0762" y1="289" y2="289"/><line style="stroke:#181818;stroke-width:0.5;" x1="274.5" x2="339.0762" y1="297" y2="297"/></g><!--class Vehiculo--><g id="elem_Vehiculo"><rect codeLine="25" fill="#F1F1F1" height="48" id="Vehiculo" rx="2.5" ry="2.5" style="stroke:#181818;stroke-width:0.5;" width="91.9785" x="201" y="382"/><ellipse cx="216" cy="398" fill="#ADD1B2" rx="11" ry="11" style="stroke:#181818;stroke-width:1.0;"/><path d="M218.9688,403.6406 Q218.3906,403.9375 217.75,404.0781 Q217.1094,404.2344 216.4063,404.2344 Q213.9063,404.2344 212.5781,402.5938 Q211.2656,400.9375 211.2656,397.8125 Q211.2656,394.6875 212.5781,393.0313 Q213.9063,391.375 216.4063,391.375 Q217.1094,391.375 217.75,391.5313 Q218.4063,391.6875 218.9688,391.9844 L218.9688,394.7031 Q218.3438,394.125 217.75,393.8594 Q217.1563,393.5781 216.5313,393.5781 Q215.1875,393.5781 214.5,394.6563 Q213.8125,395.7188 213.8125,397.8125 Q213.8125,399.9063 214.5,400.9844 Q215.1875,402.0469 216.5313,402.0469 Q217.1563,402.0469 217.75,401.7813 Q218.3438,401.5 218.9688,400.9219 L218.9688,403.6406 Z " fill="#000000"/><text fill="#000000" font-family="sans-serif" font-size="14" lengthAdjust="spacing" textLength="59.9785" x="230" y="402.8467">Vehiculo</text><line style="stroke:#181818;stroke-width:0.5;" x1="202" x2="291.9785" y1="414" y2="414"/><line style="stroke:#181818;stroke-width:0.5;" x1="202" x2="291.9785" y1="422" y2="422"/></g><!--class Ruta--><g id="elem_Ruta"><rect codeLine="28" fill="#F1F1F1" height="48" id="Ruta" rx="2.5" ry="2.5" style="stroke:#181818;stroke-width:0.5;" width="64.6689" x="214.5" y="507"/><ellipse cx="229.5" cy="523" fill="#ADD1B2" rx="11" ry="11" style="stroke:#181818;stroke-width:1.0;"/><path d="M232.4688,528.6406 Q231.8906,528.9375 231.25,529.0781 Q230.6094,529.2344 229.9063,529.2344 Q227.4063,529.2344 226.0781,527.5938 Q224.7656,525.9375 224.7656,522.8125 Q224.7656,519.6875 226.0781,518.0313 Q227.4063,516.375 229.9063,516.375 Q230.6094,516.375 231.25,516.5313 Q231.9063,516.6875 232.4688,516.9844 L232.4688,519.7031 Q231.8438,519.125 231.25,518.8594 Q230.6563,518.5781 230.0313,518.5781 Q228.6875,518.5781 228,519.6563 Q227.3125,520.7188 227.3125,522.8125 Q227.3125,524.9063 228,525.9844 Q228.6875,527.0469 230.0313,527.0469 Q230.6563,527.0469 231.25,526.7813 Q231.8438,526.5 232.4688,525.9219 L232.4688,528.6406 Z " fill="#000000"/><text fill="#000000" font-family="sans-serif" font-size="14" lengthAdjust="spacing" textLength="32.6689" x="243.5" y="527.8467">Ruta</text><line style="stroke:#181818;stroke-width:0.5;" x1="215.5" x2="278.1689" y1="539" y2="539"/><line style="stroke:#181818;stroke-width:0.5;" x1="215.5" x2="278.1689" y1="547" y2="547"/></g><!--class Parada--><g id="elem_Parada"><rect codeLine="31" fill="#F1F1F1" height="48" id="Parada" rx="2.5" ry="2.5" style="stroke:#181818;stroke-width:0.5;" width="80.8223" x="147.5" y="632"/><ellipse cx="162.5" cy="648" fill="#ADD1B2" rx="11" ry="11" style="stroke:#181818;stroke-width:1.0;"/><path d="M165.4688,653.6406 Q164.8906,653.9375 164.25,654.0781 Q163.6094,654.2344 162.9063,654.2344 Q160.4063,654.2344 159.0781,652.5938 Q157.7656,650.9375 157.7656,647.8125 Q157.7656,644.6875 159.0781,643.0313 Q160.4063,641.375 162.9063,641.375 Q163.6094,641.375 164.25,641.5313 Q164.9063,641.6875 165.4688,641.9844 L165.4688,644.7031 Q164.8438,644.125 164.25,643.8594 Q163.6563,643.5781 163.0313,643.5781 Q161.6875,643.5781 161,644.6563 Q160.3125,645.7188 160.3125,647.8125 Q160.3125,649.9063 161,650.9844 Q161.6875,652.0469 163.0313,652.0469 Q163.6563,652.0469 164.25,651.7813 Q164.8438,651.5 165.4688,650.9219 L165.4688,653.6406 Z " fill="#000000"/><text fill="#000000" font-family="sans-serif" font-size="14" lengthAdjust="spacing" textLength="48.8223" x="176.5" y="652.8467">Parada</text><line style="stroke:#181818;stroke-width:0.5;" x1="148.5" x2="227.3223" y1="664" y2="664"/><line style="stroke:#181818;stroke-width:0.5;" x1="148.5" x2="227.3223" y1="672" y2="672"/></g><!--class Horario--><g id="elem_Horario"><rect codeLine="34" fill="#F1F1F1" height="48" id="Horario" rx="2.5" ry="2.5" style="stroke:#181818;stroke-width:0.5;" width="83.6387" x="264" y="632"/><ellipse cx="279" cy="648" fill="#ADD1B2" rx="11" ry="11" style="stroke:#181818;stroke-width:1.0;"/><path d="M281.9688,653.6406 Q281.3906,653.9375 280.75,654.0781 Q280.1094,654.2344 279.4063,654.2344 Q276.9063,654.2344 275.5781,652.5938 Q274.2656,650.9375 274.2656,647.8125 Q274.2656,644.6875 275.5781,643.0313 Q276.9063,641.375 279.4063,641.375 Q280.1094,641.375 280.75,641.5313 Q281.4063,641.6875 281.9688,641.9844 L281.9688,644.7031 Q281.3438,644.125 280.75,643.8594 Q280.1563,643.5781 279.5313,643.5781 Q278.1875,643.5781 277.5,644.6563 Q276.8125,645.7188 276.8125,647.8125 Q276.8125,649.9063 277.5,650.9844 Q278.1875,652.0469 279.5313,652.0469 Q280.1563,652.0469 280.75,651.7813 Q281.3438,651.5 281.9688,650.9219 L281.9688,653.6406 Z " fill="#000000"/><text fill="#000000" font-family="sans-serif" font-size="14" lengthAdjust="spacing" textLength="51.6387" x="293" y="652.8467">Horario</text><line style="stroke:#181818;stroke-width:0.5;" x1="265" x2="346.6387" y1="664" y2="664"/><line style="stroke:#181818;stroke-width:0.5;" x1="265" x2="346.6387" y1="672" y2="672"/></g><!--class GestionDeIncidencias--><g id="elem_GestionDeIncidencias"><rect codeLine="37" fill="#F1F1F1" height="48" id="GestionDeIncidencias" rx="2.5" ry="2.5" style="stroke:#181818;stroke-width:0.5;" width="183.3887" x="335.5" y="132"/><ellipse cx="350.5" cy="148" fill="#ADD1B2" rx="11" ry="11" style="stroke:#181818;stroke-width:1.0;"/><path d="M353.4688,153.6406 Q352.8906,153.9375 352.25,154.0781 Q351.6094,154.2344 350.9063,154.2344 Q348.4063,154.2344 347.0781,152.5938 Q345.7656,150.9375 345.7656,147.8125 Q345.7656,144.6875 347.0781,143.0313 Q348.4063,141.375 350.9063,141.375 Q351.6094,141.375 352.25,141.5313 Q352.9063,141.6875 353.4688,141.9844 L353.4688,144.7031 Q352.8438,144.125 352.25,143.8594 Q351.6563,143.5781 351.0313,143.5781 Q349.6875,143.5781 349,144.6563 Q348.3125,145.7188 348.3125,147.8125 Q348.3125,149.9063 349,150.9844 Q349.6875,152.0469 351.0313,152.0469 Q351.6563,152.0469 352.25,151.7813 Q352.8438,151.5 353.4688,150.9219 L353.4688,153.6406 Z " fill="#000000"/><text fill="#000000" font-family="sans-serif" font-size="14" lengthAdjust="spacing" textLength="151.3887" x="364.5" y="152.8467">GestionDeIncidencias</text><line style="stroke:#181818;stroke-width:0.5;" x1="336.5" x2="517.8887" y1="164" y2="164"/><line style="stroke:#181818;stroke-width:0.5;" x1="336.5" x2="517.8887" y1="172" y2="172"/></g><!--class Incidencia--><g id="elem_Incidencia"><rect codeLine="40" fill="#F1F1F1" height="48" id="Incidencia" rx="2.5" ry="2.5" style="stroke:#181818;stroke-width:0.5;" width="103.1279" x="375.5" y="257"/><ellipse cx="390.5" cy="273" fill="#ADD1B2" rx="11" ry="11" style="stroke:#181818;stroke-width:1.0;"/><path d="M393.4688,278.6406 Q392.8906,278.9375 392.25,279.0781 Q391.6094,279.2344 390.9063,279.2344 Q388.4063,279.2344 387.0781,277.5938 Q385.7656,275.9375 385.7656,272.8125 Q385.7656,269.6875 387.0781,268.0313 Q388.4063,266.375 390.9063,266.375 Q391.6094,266.375 392.25,266.5313 Q392.9063,266.6875 393.4688,266.9844 L393.4688,269.7031 Q392.8438,269.125 392.25,268.8594 Q391.6563,268.5781 391.0313,268.5781 Q389.6875,268.5781 389,269.6563 Q388.3125,270.7188 388.3125,272.8125 Q388.3125,274.9063 389,275.9844 Q389.6875,277.0469 391.0313,277.0469 Q391.6563,277.0469 392.25,276.7813 Q392.8438,276.5 393.4688,275.9219 L393.4688,278.6406 Z " fill="#000000"/><text fill="#000000" font-family="sans-serif" font-size="14" lengthAdjust="spacing" textLength="71.1279" x="404.5" y="277.8467">Incidencia</text><line style="stroke:#181818;stroke-width:0.5;" x1="376.5" x2="477.6279" y1="289" y2="289"/><line style="stroke:#181818;stroke-width:0.5;" x1="376.5" x2="477.6279" y1="297" y2="297"/></g><!--link Servicio to Persona--><g id="link_Servicio_Persona"><path codeLine="44" d="M245.44,55.2 C232.18,63.72 217.83,73.99 206,85 C191.06,98.91 180.4769,112.328 170.4869,126.748 " fill="none" id="Servicio-to-Persona" style="stroke:#181818;stroke-width:1.0;"/><polygon fill="#181818" points="167.07,131.68,175.4833,126.5598,169.9174,127.57,168.9073,122.004,167.07,131.68" style="stroke:#181818;stroke-width:1.0;"/><text fill="#000000" font-family="sans-serif" font-size="13" lengthAdjust="spacing" textLength="32.9443" x="207" y="98.0669">tiene</text></g><!--link Servicio to SistemaDePago--><g id="link_Servicio_SistemaDePago"><path codeLine="45" d="M330.32,48.08 C389.36,69.5 488.5599,105.4932 555.9599,129.9532 " fill="none" id="Servicio-to-SistemaDePago" style="stroke:#181818;stroke-width:1.0;"/><polygon fill="#181818" points="561.6,132,554.5044,125.1697,556.8999,130.2943,551.7753,132.6898,561.6,132" style="stroke:#181818;stroke-width:1.0;"/></g><!--link Servicio to Flota--><g id="link_Servicio_Flota"><path codeLine="46" d="M283.89,55.16 C281.63,84.37 279.01,136.08 284,180 C287.03,206.73 292.877,230.9409 298.487,251.0409 " fill="none" id="Servicio-to-Flota" style="stroke:#181818;stroke-width:1.0;"/><polygon fill="#181818" points="300.1,256.82,301.5333,247.076,298.7559,252.0041,293.8278,249.2266,300.1,256.82" style="stroke:#181818;stroke-width:1.0;"/><text fill="#000000" font-family="sans-serif" font-size="13" lengthAdjust="spacing" textLength="32.9443" x="285" y="160.5669">tiene</text></g><!--link Servicio to GestionDeIncidencias--><g id="link_Servicio_GestionDeIncidencias"><path codeLine="47" d="M312.52,55.14 C337.73,77.13 370.9089,106.0655 396.0789,128.0255 " fill="none" id="Servicio-to-GestionDeIncidencias" style="stroke:#181818;stroke-width:1.0;"/><polygon fill="#181818" points="400.6,131.97,396.448,123.0391,396.8324,128.6829,391.1886,129.0673,400.6,131.97" style="stroke:#181818;stroke-width:1.0;"/></g><!--link Persona to Pasajero--><g id="link_Persona_Pasajero"><path codeLine="49" d="M133.38,180.14 C115.68,202.13 89.21,235.01 71.54,256.97 " fill="none" id="Persona-Pasajero" style="stroke:#181818;stroke-width:1.0;"/></g><!--link Persona to Conductor--><g id="link_Persona_Conductor"><path codeLine="50" d="M158.4,180.14 C164.47,202.13 173.56,235.01 179.63,256.97 " fill="none" id="Persona-Conductor" style="stroke:#181818;stroke-width:1.0;"/></g><!--link Pasajero to Vehiculo--><g id="link_Pasajero_Vehiculo"><path codeLine="52" d="M89.49,305.14 C124.17,327.13 170.9729,356.7968 205.6029,378.7568 " fill="none" id="Pasajero-to-Vehiculo" style="stroke:#181818;stroke-width:1.0;"/><polygon fill="#181818" points="210.67,381.97,205.2115,373.7721,206.4474,379.2923,200.9272,380.5283,210.67,381.97" style="stroke:#181818;stroke-width:1.0;"/><text fill="#000000" font-family="sans-serif" font-size="13" lengthAdjust="spacing" textLength="22.9785" x="163" y="348.0669">usa</text></g><!--link Conductor to Vehiculo--><g id="link_Conductor_Vehiculo"><path codeLine="53" d="M192.13,305.04 C196.27,319.02 202.38,336.99 210,352 C215.23,362.31 218.7284,368.0422 225.2384,377.0222 " fill="none" id="Conductor-to-Vehiculo" style="stroke:#181818;stroke-width:1.0;"/><polygon fill="#181818" points="228.76,381.88,226.7161,372.2456,225.8253,377.8318,220.239,376.9411,228.76,381.88" style="stroke:#181818;stroke-width:1.0;"/><text fill="#000000" font-family="sans-serif" font-size="13" lengthAdjust="spacing" textLength="54.9771" x="211" y="348.0669">conduce</text></g><!--link SistemaDePago to Flota--><g id="link_SistemaDePago_Flota"><path codeLine="55" d="M559.79,180.07 C505.45,199.63 426.19,228.89 358,257 C352.34,259.33 351.8644,259.4767 346.0944,262.0367 " fill="none" id="SistemaDePago-to-Flota" style="stroke:#181818;stroke-width:1.0;"/><polygon fill="#181818" points="340.61,264.47,350.4589,264.4763,345.1804,262.4422,347.2145,257.1638,340.61,264.47" style="stroke:#181818;stroke-width:1.0;"/></g><!--link SistemaDePago to Tarifa--><g id="link_SistemaDePago_Tarifa"><path codeLine="56" d="M653.36,180.1 C661.63,188.54 669.61,198.8 674,210 C696.84,268.34 685.4354,338.3598 676.5854,375.9398 " fill="none" id="SistemaDePago-to-Tarifa" style="stroke:#181818;stroke-width:1.0;"/><polygon fill="#181818" points="675.21,381.78,681.1665,373.9366,676.3561,376.9131,673.3796,372.1027,675.21,381.78" style="stroke:#181818;stroke-width:1.0;"/><text fill="#000000" font-family="sans-serif" font-size="13" lengthAdjust="spacing" textLength="62.8418" x="687" y="285.5669">establece</text></g><!--link SistemaDePago to Abono--><g id="link_SistemaDePago_Abono"><path codeLine="57" d="M618.04,180.14 C611.43,202.13 603.257,229.2639 596.657,251.2239 " fill="none" id="SistemaDePago-to-Abono" style="stroke:#181818;stroke-width:1.0;"/><polygon fill="#181818" points="594.93,256.97,601.3512,249.5022,596.3691,252.1816,593.6897,247.1995,594.93,256.97" style="stroke:#181818;stroke-width:1.0;"/><text fill="#000000" font-family="sans-serif" font-size="13" lengthAdjust="spacing" textLength="56.2847" x="609" y="223.0669">contiene</text></g><!--link Abono to Tarifa--><g id="link_Abono_Tarifa"><path codeLine="59" d="M603.24,305.14 C617.72,327.13 639.37,360.01 653.83,381.97 " fill="none" id="Abono-Tarifa" style="stroke:#181818;stroke-width:1.0;"/></g><!--link Flota to Vehiculo--><g id="link_Flota_Vehiculo"><path codeLine="61" d="M295.71,305.14 C284.99,327.13 271.5821,354.6181 260.8621,376.5781 " fill="none" id="Flota-to-Vehiculo" style="stroke:#181818;stroke-width:1.0;"/><polygon fill="#181818" points="258.23,381.97,265.7727,375.6369,260.4234,377.4768,258.5836,372.1275,258.23,381.97" style="stroke:#181818;stroke-width:1.0;"/><text fill="#000000" font-family="sans-serif" font-size="13" lengthAdjust="spacing" textLength="32.9443" x="282" y="348.0669">tiene</text></g><!--link Vehiculo to Ruta--><g id="link_Vehiculo_Ruta"><path codeLine="63" d="M247,430.14 C247,452.13 247,479.01 247,500.97 " fill="none" id="Vehiculo-to-Ruta" style="stroke:#181818;stroke-width:1.0;"/><polygon fill="#181818" points="247,506.97,251,497.97,247,501.97,243,497.97,247,506.97" style="stroke:#181818;stroke-width:1.0;"/><text fill="#000000" font-family="sans-serif" font-size="13" lengthAdjust="spacing" textLength="32.9443" x="248" y="473.0669">tiene</text></g><!--link Ruta to Parada--><g id="link_Ruta_Parada"><path codeLine="65" d="M235.9,555.14 C225.35,577.13 212.1742,604.5998 201.6442,626.5598 " fill="none" id="Ruta-to-Parada" style="stroke:#181818;stroke-width:1.0;"/><polygon fill="#181818" points="199.05,631.97,206.5481,625.5842,201.2119,627.4615,199.3346,622.1253,199.05,631.97" style="stroke:#181818;stroke-width:1.0;"/><text fill="#000000" font-family="sans-serif" font-size="13" lengthAdjust="spacing" textLength="32.9443" x="223" y="598.0669">tiene</text></g><!--link Ruta to Horario--><g id="link_Ruta_Horario"><path codeLine="66" d="M258.1,555.14 C268.65,577.13 281.8258,604.5998 292.3558,626.5598 " fill="none" id="Ruta-to-Horario" style="stroke:#181818;stroke-width:1.0;"/><polygon fill="#181818" points="294.95,631.97,294.6654,622.1253,292.7881,627.4615,287.4519,625.5842,294.95,631.97" style="stroke:#181818;stroke-width:1.0;"/><text fill="#000000" font-family="sans-serif" font-size="13" lengthAdjust="spacing" textLength="32.9443" x="282" y="598.0669">tiene</text></g><!--link GestionDeIncidencias to Incidencia--><g id="link_GestionDeIncidencias_Incidencia"><path codeLine="68" d="M427,180.14 C427,202.13 427,229.01 427,250.97 " fill="none" id="GestionDeIncidencias-to-Incidencia" style="stroke:#181818;stroke-width:1.0;"/><polygon fill="#181818" points="427,256.97,431,247.97,427,251.97,423,247.97,427,256.97" style="stroke:#181818;stroke-width:1.0;"/></g><!--link Incidencia to Vehiculo--><g id="link_Incidencia_Vehiculo"><path codeLine="69" d="M393.14,305.14 C360.96,327.13 317.794,356.6251 285.654,378.5851 " fill="none" id="Incidencia-to-Vehiculo" style="stroke:#181818;stroke-width:1.0;"/><polygon fill="#181818" points="280.7,381.97,290.3877,380.1953,284.8284,379.1493,285.8745,373.59,280.7,381.97" style="stroke:#181818;stroke-width:1.0;"/></g><!--SRC=[RL6xRiCm3Dpv5Ve1_u270aMDFBQWARepCjEeS2L0ahiK-VV8KaoBhXS1l3kAHvuUC0Hr9lzhj77g3-u0EcCdyi5P5106_2OlP6_EzgEEpjVWsOH8FzZH2R-4-WEzkOe_No_E2ibkS54eFkbcz3W8qViOLyuyzW8vE9zcYQOzXMYSxUXejUafFHXgVe4B2doMfddXUxGg6h8aIRcmvCf2csrRZW3cIKt35wynldXIpe5Cd_6TMZK6X2MO5QapGMazONgnka4ySsjLCeoNWLBxVr69CWyekq91akVI3r06h0mznOnCT0wOgLpb44hECy7ud3PtR6OzAPSQghnhHmy0]--></g></svg>