<svg xmlns="http://www.w3.org/2000/svg" xmlns:xlink="http://www.w3.org/1999/xlink" contentStyleType="text/css" height="843px" preserveAspectRatio="none" style="width:727px;height:843px;background:#FFFFFF;" version="1.1" viewBox="0 0 727 843" width="727px" zoomAndPan="magnify"><defs/><g><!--class Servicio--><g id="elem_Servicio"><rect codeLine="1" fill="#F1F1F1" height="48" id="Servicio" rx="2.5" ry="2.5" style="stroke:#181818;stroke-width:0.5;" width="87.583" x="241.5" y="7"/><ellipse cx="256.5" cy="23" fill="#ADD1B2" rx="11" ry="11" style="stroke:#181818;stroke-width:1.0;"/><path d="M259.4688,28.6406 Q258.8906,28.9375 258.25,29.0781 Q257.6094,29.2344 256.9063,29.2344 Q254.4063,29.2344 253.0781,27.5938 Q251.7656,25.9375 251.7656,22.8125 Q251.7656,19.6875 253.0781,18.0313 Q254.4063,16.375 256.9063,16.375 Q257.6094,16.375 258.25,16.5313 Q258.9063,16.6875 259.4688,16.9844 L259.4688,19.7031 Q258.8438,19.125 258.25,18.8594 Q257.6563,18.5781 257.0313,18.5781 Q255.6875,18.5781 255,19.6563 Q254.3125,20.7188 254.3125,22.8125 Q254.3125,24.9063 255,25.9844 Q255.6875,27.0469 257.0313,27.0469 Q257.6563,27.0469 258.25,26.7813 Q258.8438,26.5 259.4688,25.9219 L259.4688,28.6406 Z " fill="#000000"/><text fill="#000000" font-family="sans-serif" font-size="14" lengthAdjust="spacing" textLength="55.583" x="270.5" y="27.8467">Servicio</text><line style="stroke:#181818;stroke-width:0.5;" x1="242.5" x2="328.083" y1="39" y2="39"/><line style="stroke:#181818;stroke-width:0.5;" x1="242.5" x2="328.083" y1="47" y2="47"/></g><!--class Persona--><g id="elem_Persona"><rect codeLine="4" fill="#F1F1F1" height="48" id="Persona" rx="2.5" ry="2.5" style="stroke:#181818;stroke-width:0.5;" width="88.123" x="301.5" y="132"/><ellipse cx="316.5" cy="148" fill="#ADD1B2" rx="11" ry="11" style="stroke:#181818;stroke-width:1.0;"/><path d="M319.4688,153.6406 Q318.8906,153.9375 318.25,154.0781 Q317.6094,154.2344 316.9063,154.2344 Q314.4063,154.2344 313.0781,152.5938 Q311.7656,150.9375 311.7656,147.8125 Q311.7656,144.6875 313.0781,143.0313 Q314.4063,141.375 316.9063,141.375 Q317.6094,141.375 318.25,141.5313 Q318.9063,141.6875 319.4688,141.9844 L319.4688,144.7031 Q318.8438,144.125 318.25,143.8594 Q317.6563,143.5781 317.0313,143.5781 Q315.6875,143.5781 315,144.6563 Q314.3125,145.7188 314.3125,147.8125 Q314.3125,149.9063 315,150.9844 Q315.6875,152.0469 317.0313,152.0469 Q317.6563,152.0469 318.25,151.7813 Q318.8438,151.5 319.4688,150.9219 L319.4688,153.6406 Z " fill="#000000"/><text fill="#000000" font-family="sans-serif" font-size="14" lengthAdjust="spacing" textLength="56.123" x="330.5" y="152.8467">Persona</text><line style="stroke:#181818;stroke-width:0.5;" x1="302.5" x2="388.623" y1="164" y2="164"/><line style="stroke:#181818;stroke-width:0.5;" x1="302.5" x2="388.623" y1="172" y2="172"/></g><!--class Pasajero--><g id="elem_Pasajero"><rect codeLine="7" fill="#F1F1F1" height="48" id="Pasajero" rx="2.5" ry="2.5" style="stroke:#181818;stroke-width:0.5;" width="91.7188" x="390.5" y="288"/><ellipse cx="405.5" cy="304" fill="#ADD1B2" rx="11" ry="11" style="stroke:#181818;stroke-width:1.0;"/><path d="M408.4688,309.6406 Q407.8906,309.9375 407.25,310.0781 Q406.6094,310.2344 405.9063,310.2344 Q403.4063,310.2344 402.0781,308.5938 Q400.7656,306.9375 400.7656,303.8125 Q400.7656,300.6875 402.0781,299.0313 Q403.4063,297.375 405.9063,297.375 Q406.6094,297.375 407.25,297.5313 Q407.9063,297.6875 408.4688,297.9844 L408.4688,300.7031 Q407.8438,300.125 407.25,299.8594 Q406.6563,299.5781 406.0313,299.5781 Q404.6875,299.5781 404,300.6563 Q403.3125,301.7188 403.3125,303.8125 Q403.3125,305.9063 404,306.9844 Q404.6875,308.0469 406.0313,308.0469 Q406.6563,308.0469 407.25,307.7813 Q407.8438,307.5 408.4688,306.9219 L408.4688,309.6406 Z " fill="#000000"/><text fill="#000000" font-family="sans-serif" font-size="14" lengthAdjust="spacing" textLength="59.7188" x="419.5" y="308.8467">Pasajero</text><line style="stroke:#181818;stroke-width:0.5;" x1="391.5" x2="481.2188" y1="320" y2="320"/><line style="stroke:#181818;stroke-width:0.5;" x1="391.5" x2="481.2188" y1="328" y2="328"/></g><!--class Conductor--><g id="elem_Conductor"><rect codeLine="10" fill="#F1F1F1" height="48" id="Conductor" rx="2.5" ry="2.5" style="stroke:#181818;stroke-width:0.5;" width="104.4814" x="285.5" y="413"/><ellipse cx="300.5" cy="429" fill="#ADD1B2" rx="11" ry="11" style="stroke:#181818;stroke-width:1.0;"/><path d="M303.4688,434.6406 Q302.8906,434.9375 302.25,435.0781 Q301.6094,435.2344 300.9063,435.2344 Q298.4063,435.2344 297.0781,433.5938 Q295.7656,431.9375 295.7656,428.8125 Q295.7656,425.6875 297.0781,424.0313 Q298.4063,422.375 300.9063,422.375 Q301.6094,422.375 302.25,422.5313 Q302.9063,422.6875 303.4688,422.9844 L303.4688,425.7031 Q302.8438,425.125 302.25,424.8594 Q301.6563,424.5781 301.0313,424.5781 Q299.6875,424.5781 299,425.6563 Q298.3125,426.7188 298.3125,428.8125 Q298.3125,430.9063 299,431.9844 Q299.6875,433.0469 301.0313,433.0469 Q301.6563,433.0469 302.25,432.7813 Q302.8438,432.5 303.4688,431.9219 L303.4688,434.6406 Z " fill="#000000"/><text fill="#000000" font-family="sans-serif" font-size="14" lengthAdjust="spacing" textLength="72.4814" x="314.5" y="433.8467">Conductor</text><line style="stroke:#181818;stroke-width:0.5;" x1="286.5" x2="388.9814" y1="445" y2="445"/><line style="stroke:#181818;stroke-width:0.5;" x1="286.5" x2="388.9814" y1="453" y2="453"/></g><!--class SistemaDePago--><g id="elem_SistemaDePago"><rect codeLine="13" fill="#F1F1F1" height="48" id="SistemaDePago" rx="2.5" ry="2.5" style="stroke:#181818;stroke-width:0.5;" width="142.2568" x="463.5" y="132"/><ellipse cx="478.5" cy="148" fill="#ADD1B2" rx="11" ry="11" style="stroke:#181818;stroke-width:1.0;"/><path d="M481.4688,153.6406 Q480.8906,153.9375 480.25,154.0781 Q479.6094,154.2344 478.9063,154.2344 Q476.4063,154.2344 475.0781,152.5938 Q473.7656,150.9375 473.7656,147.8125 Q473.7656,144.6875 475.0781,143.0313 Q476.4063,141.375 478.9063,141.375 Q479.6094,141.375 480.25,141.5313 Q480.9063,141.6875 481.4688,141.9844 L481.4688,144.7031 Q480.8438,144.125 480.25,143.8594 Q479.6563,143.5781 479.0313,143.5781 Q477.6875,143.5781 477,144.6563 Q476.3125,145.7188 476.3125,147.8125 Q476.3125,149.9063 477,150.9844 Q477.6875,152.0469 479.0313,152.0469 Q479.6563,152.0469 480.25,151.7813 Q480.8438,151.5 481.4688,150.9219 L481.4688,153.6406 Z " fill="#000000"/><text fill="#000000" font-family="sans-serif" font-size="14" lengthAdjust="spacing" textLength="110.2568" x="492.5" y="152.8467">SistemaDePago</text><line style="stroke:#181818;stroke-width:0.5;" x1="464.5" x2="604.7568" y1="164" y2="164"/><line style="stroke:#181818;stroke-width:0.5;" x1="464.5" x2="604.7568" y1="172" y2="172"/></g><!--class FormaDePago--><g id="elem_FormaDePago"><rect codeLine="16" fill="#F1F1F1" height="48" id="FormaDePago" rx="2.5" ry="2.5" style="stroke:#181818;stroke-width:0.5;" width="130.458" x="517.5" y="288"/><ellipse cx="532.5" cy="304" fill="#ADD1B2" rx="11" ry="11" style="stroke:#181818;stroke-width:1.0;"/><path d="M535.4688,309.6406 Q534.8906,309.9375 534.25,310.0781 Q533.6094,310.2344 532.9063,310.2344 Q530.4063,310.2344 529.0781,308.5938 Q527.7656,306.9375 527.7656,303.8125 Q527.7656,300.6875 529.0781,299.0313 Q530.4063,297.375 532.9063,297.375 Q533.6094,297.375 534.25,297.5313 Q534.9063,297.6875 535.4688,297.9844 L535.4688,300.7031 Q534.8438,300.125 534.25,299.8594 Q533.6563,299.5781 533.0313,299.5781 Q531.6875,299.5781 531,300.6563 Q530.3125,301.7188 530.3125,303.8125 Q530.3125,305.9063 531,306.9844 Q531.6875,308.0469 533.0313,308.0469 Q533.6563,308.0469 534.25,307.7813 Q534.8438,307.5 535.4688,306.9219 L535.4688,309.6406 Z " fill="#000000"/><text fill="#000000" font-family="sans-serif" font-size="14" lengthAdjust="spacing" textLength="98.458" x="546.5" y="308.8467">FormaDePago</text><line style="stroke:#181818;stroke-width:0.5;" x1="518.5" x2="646.958" y1="320" y2="320"/><line style="stroke:#181818;stroke-width:0.5;" x1="518.5" x2="646.958" y1="328" y2="328"/></g><!--class Tarifa--><g id="elem_Tarifa"><rect codeLine="19" fill="#F1F1F1" height="48" id="Tarifa" rx="2.5" ry="2.5" style="stroke:#181818;stroke-width:0.5;" width="72.2842" x="537.5" y="413"/><ellipse cx="552.5" cy="429" fill="#ADD1B2" rx="11" ry="11" style="stroke:#181818;stroke-width:1.0;"/><path d="M555.4688,434.6406 Q554.8906,434.9375 554.25,435.0781 Q553.6094,435.2344 552.9063,435.2344 Q550.4063,435.2344 549.0781,433.5938 Q547.7656,431.9375 547.7656,428.8125 Q547.7656,425.6875 549.0781,424.0313 Q550.4063,422.375 552.9063,422.375 Q553.6094,422.375 554.25,422.5313 Q554.9063,422.6875 555.4688,422.9844 L555.4688,425.7031 Q554.8438,425.125 554.25,424.8594 Q553.6563,424.5781 553.0313,424.5781 Q551.6875,424.5781 551,425.6563 Q550.3125,426.7188 550.3125,428.8125 Q550.3125,430.9063 551,431.9844 Q551.6875,433.0469 553.0313,433.0469 Q553.6563,433.0469 554.25,432.7813 Q554.8438,432.5 555.4688,431.9219 L555.4688,434.6406 Z " fill="#000000"/><text fill="#000000" font-family="sans-serif" font-size="14" lengthAdjust="spacing" textLength="40.2842" x="566.5" y="433.8467">Tarifa</text><line style="stroke:#181818;stroke-width:0.5;" x1="538.5" x2="608.7842" y1="445" y2="445"/><line style="stroke:#181818;stroke-width:0.5;" x1="538.5" x2="608.7842" y1="453" y2="453"/></g><!--class Abono--><g id="elem_Abono"><rect codeLine="22" fill="#F1F1F1" height="48" id="Abono" rx="2.5" ry="2.5" style="stroke:#181818;stroke-width:0.5;" width="76.4678" x="644.5" y="413"/><ellipse cx="659.5" cy="429" fill="#ADD1B2" rx="11" ry="11" style="stroke:#181818;stroke-width:1.0;"/><path d="M662.4688,434.6406 Q661.8906,434.9375 661.25,435.0781 Q660.6094,435.2344 659.9063,435.2344 Q657.4063,435.2344 656.0781,433.5938 Q654.7656,431.9375 654.7656,428.8125 Q654.7656,425.6875 656.0781,424.0313 Q657.4063,422.375 659.9063,422.375 Q660.6094,422.375 661.25,422.5313 Q661.9063,422.6875 662.4688,422.9844 L662.4688,425.7031 Q661.8438,425.125 661.25,424.8594 Q660.6563,424.5781 660.0313,424.5781 Q658.6875,424.5781 658,425.6563 Q657.3125,426.7188 657.3125,428.8125 Q657.3125,430.9063 658,431.9844 Q658.6875,433.0469 660.0313,433.0469 Q660.6563,433.0469 661.25,432.7813 Q661.8438,432.5 662.4688,431.9219 L662.4688,434.6406 Z " fill="#000000"/><text fill="#000000" font-family="sans-serif" font-size="14" lengthAdjust="spacing" textLength="44.4678" x="673.5" y="433.8467">Abono</text><line style="stroke:#181818;stroke-width:0.5;" x1="645.5" x2="719.9678" y1="445" y2="445"/><line style="stroke:#181818;stroke-width:0.5;" x1="645.5" x2="719.9678" y1="453" y2="453"/></g><!--class Flota--><g id="elem_Flota"><rect codeLine="25" fill="#F1F1F1" height="48" id="Flota" rx="2.5" ry="2.5" style="stroke:#181818;stroke-width:0.5;" width="66.5762" x="215" y="210"/><ellipse cx="230" cy="226" fill="#ADD1B2" rx="11" ry="11" style="stroke:#181818;stroke-width:1.0;"/><path d="M232.9688,231.6406 Q232.3906,231.9375 231.75,232.0781 Q231.1094,232.2344 230.4063,232.2344 Q227.9063,232.2344 226.5781,230.5938 Q225.2656,228.9375 225.2656,225.8125 Q225.2656,222.6875 226.5781,221.0313 Q227.9063,219.375 230.4063,219.375 Q231.1094,219.375 231.75,219.5313 Q232.4063,219.6875 232.9688,219.9844 L232.9688,222.7031 Q232.3438,222.125 231.75,221.8594 Q231.1563,221.5781 230.5313,221.5781 Q229.1875,221.5781 228.5,222.6563 Q227.8125,223.7188 227.8125,225.8125 Q227.8125,227.9063 228.5,228.9844 Q229.1875,230.0469 230.5313,230.0469 Q231.1563,230.0469 231.75,229.7813 Q232.3438,229.5 232.9688,228.9219 L232.9688,231.6406 Z " fill="#000000"/><text fill="#000000" font-family="sans-serif" font-size="14" lengthAdjust="spacing" textLength="34.5762" x="244" y="230.8467">Flota</text><line style="stroke:#181818;stroke-width:0.5;" x1="216" x2="280.5762" y1="242" y2="242"/><line style="stroke:#181818;stroke-width:0.5;" x1="216" x2="280.5762" y1="250" y2="250"/></g><!--class Vehiculo--><g id="elem_Vehiculo"><rect codeLine="28" fill="#F1F1F1" height="48" id="Vehiculo" rx="2.5" ry="2.5" style="stroke:#181818;stroke-width:0.5;" width="91.9785" x="244.5" y="538"/><ellipse cx="259.5" cy="554" fill="#ADD1B2" rx="11" ry="11" style="stroke:#181818;stroke-width:1.0;"/><path d="M262.4688,559.6406 Q261.8906,559.9375 261.25,560.0781 Q260.6094,560.2344 259.9063,560.2344 Q257.4063,560.2344 256.0781,558.5938 Q254.7656,556.9375 254.7656,553.8125 Q254.7656,550.6875 256.0781,549.0313 Q257.4063,547.375 259.9063,547.375 Q260.6094,547.375 261.25,547.5313 Q261.9063,547.6875 262.4688,547.9844 L262.4688,550.7031 Q261.8438,550.125 261.25,549.8594 Q260.6563,549.5781 260.0313,549.5781 Q258.6875,549.5781 258,550.6563 Q257.3125,551.7188 257.3125,553.8125 Q257.3125,555.9063 258,556.9844 Q258.6875,558.0469 260.0313,558.0469 Q260.6563,558.0469 261.25,557.7813 Q261.8438,557.5 262.4688,556.9219 L262.4688,559.6406 Z " fill="#000000"/><text fill="#000000" font-family="sans-serif" font-size="14" lengthAdjust="spacing" textLength="59.9785" x="273.5" y="558.8467">Vehiculo</text><line style="stroke:#181818;stroke-width:0.5;" x1="245.5" x2="335.4785" y1="570" y2="570"/><line style="stroke:#181818;stroke-width:0.5;" x1="245.5" x2="335.4785" y1="578" y2="578"/></g><!--class Ruta--><g id="elem_Ruta"><rect codeLine="31" fill="#F1F1F1" height="48" id="Ruta" rx="2.5" ry="2.5" style="stroke:#181818;stroke-width:0.5;" width="64.6689" x="276" y="663"/><ellipse cx="291" cy="679" fill="#ADD1B2" rx="11" ry="11" style="stroke:#181818;stroke-width:1.0;"/><path d="M293.9688,684.6406 Q293.3906,684.9375 292.75,685.0781 Q292.1094,685.2344 291.4063,685.2344 Q288.9063,685.2344 287.5781,683.5938 Q286.2656,681.9375 286.2656,678.8125 Q286.2656,675.6875 287.5781,674.0313 Q288.9063,672.375 291.4063,672.375 Q292.1094,672.375 292.75,672.5313 Q293.4063,672.6875 293.9688,672.9844 L293.9688,675.7031 Q293.3438,675.125 292.75,674.8594 Q292.1563,674.5781 291.5313,674.5781 Q290.1875,674.5781 289.5,675.6563 Q288.8125,676.7188 288.8125,678.8125 Q288.8125,680.9063 289.5,681.9844 Q290.1875,683.0469 291.5313,683.0469 Q292.1563,683.0469 292.75,682.7813 Q293.3438,682.5 293.9688,681.9219 L293.9688,684.6406 Z " fill="#000000"/><text fill="#000000" font-family="sans-serif" font-size="14" lengthAdjust="spacing" textLength="32.6689" x="305" y="683.8467">Ruta</text><line style="stroke:#181818;stroke-width:0.5;" x1="277" x2="339.6689" y1="695" y2="695"/><line style="stroke:#181818;stroke-width:0.5;" x1="277" x2="339.6689" y1="703" y2="703"/></g><!--class Parada--><g id="elem_Parada"><rect codeLine="34" fill="#F1F1F1" height="48" id="Parada" rx="2.5" ry="2.5" style="stroke:#181818;stroke-width:0.5;" width="80.8223" x="268" y="788"/><ellipse cx="283" cy="804" fill="#ADD1B2" rx="11" ry="11" style="stroke:#181818;stroke-width:1.0;"/><path d="M285.9688,809.6406 Q285.3906,809.9375 284.75,810.0781 Q284.1094,810.2344 283.4063,810.2344 Q280.9063,810.2344 279.5781,808.5938 Q278.2656,806.9375 278.2656,803.8125 Q278.2656,800.6875 279.5781,799.0313 Q280.9063,797.375 283.4063,797.375 Q284.1094,797.375 284.75,797.5313 Q285.4063,797.6875 285.9688,797.9844 L285.9688,800.7031 Q285.3438,800.125 284.75,799.8594 Q284.1563,799.5781 283.5313,799.5781 Q282.1875,799.5781 281.5,800.6563 Q280.8125,801.7188 280.8125,803.8125 Q280.8125,805.9063 281.5,806.9844 Q282.1875,808.0469 283.5313,808.0469 Q284.1563,808.0469 284.75,807.7813 Q285.3438,807.5 285.9688,806.9219 L285.9688,809.6406 Z " fill="#000000"/><text fill="#000000" font-family="sans-serif" font-size="14" lengthAdjust="spacing" textLength="48.8223" x="297" y="808.8467">Parada</text><line style="stroke:#181818;stroke-width:0.5;" x1="269" x2="347.8223" y1="820" y2="820"/><line style="stroke:#181818;stroke-width:0.5;" x1="269" x2="347.8223" y1="828" y2="828"/></g><!--class Horario--><g id="elem_Horario"><rect codeLine="38" fill="#F1F1F1" height="48" id="Horario" rx="2.5" ry="2.5" style="stroke:#181818;stroke-width:0.5;" width="83.6387" x="409.5" y="788"/><ellipse cx="424.5" cy="804" fill="#ADD1B2" rx="11" ry="11" style="stroke:#181818;stroke-width:1.0;"/><path d="M427.4688,809.6406 Q426.8906,809.9375 426.25,810.0781 Q425.6094,810.2344 424.9063,810.2344 Q422.4063,810.2344 421.0781,808.5938 Q419.7656,806.9375 419.7656,803.8125 Q419.7656,800.6875 421.0781,799.0313 Q422.4063,797.375 424.9063,797.375 Q425.6094,797.375 426.25,797.5313 Q426.9063,797.6875 427.4688,797.9844 L427.4688,800.7031 Q426.8438,800.125 426.25,799.8594 Q425.6563,799.5781 425.0313,799.5781 Q423.6875,799.5781 423,800.6563 Q422.3125,801.7188 422.3125,803.8125 Q422.3125,805.9063 423,806.9844 Q423.6875,808.0469 425.0313,808.0469 Q425.6563,808.0469 426.25,807.7813 Q426.8438,807.5 427.4688,806.9219 L427.4688,809.6406 Z " fill="#000000"/><text fill="#000000" font-family="sans-serif" font-size="14" lengthAdjust="spacing" textLength="51.6387" x="438.5" y="808.8467">Horario</text><line style="stroke:#181818;stroke-width:0.5;" x1="410.5" x2="492.1387" y1="820" y2="820"/><line style="stroke:#181818;stroke-width:0.5;" x1="410.5" x2="492.1387" y1="828" y2="828"/></g><!--class GestionDeIncidencias--><g id="elem_GestionDeIncidencias"><rect codeLine="41" fill="#F1F1F1" height="48" id="GestionDeIncidencias" rx="2.5" ry="2.5" style="stroke:#181818;stroke-width:0.5;" width="183.3887" x="7" y="132"/><ellipse cx="22" cy="148" fill="#ADD1B2" rx="11" ry="11" style="stroke:#181818;stroke-width:1.0;"/><path d="M24.9688,153.6406 Q24.3906,153.9375 23.75,154.0781 Q23.1094,154.2344 22.4063,154.2344 Q19.9063,154.2344 18.5781,152.5938 Q17.2656,150.9375 17.2656,147.8125 Q17.2656,144.6875 18.5781,143.0313 Q19.9063,141.375 22.4063,141.375 Q23.1094,141.375 23.75,141.5313 Q24.4063,141.6875 24.9688,141.9844 L24.9688,144.7031 Q24.3438,144.125 23.75,143.8594 Q23.1563,143.5781 22.5313,143.5781 Q21.1875,143.5781 20.5,144.6563 Q19.8125,145.7188 19.8125,147.8125 Q19.8125,149.9063 20.5,150.9844 Q21.1875,152.0469 22.5313,152.0469 Q23.1563,152.0469 23.75,151.7813 Q24.3438,151.5 24.9688,150.9219 L24.9688,153.6406 Z " fill="#000000"/><text fill="#000000" font-family="sans-serif" font-size="14" lengthAdjust="spacing" textLength="151.3887" x="36" y="152.8467">GestionDeIncidencias</text><line style="stroke:#181818;stroke-width:0.5;" x1="8" x2="189.3887" y1="164" y2="164"/><line style="stroke:#181818;stroke-width:0.5;" x1="8" x2="189.3887" y1="172" y2="172"/></g><!--class Incidencia--><g id="elem_Incidencia"><rect codeLine="44" fill="#F1F1F1" height="48" id="Incidencia" rx="2.5" ry="2.5" style="stroke:#181818;stroke-width:0.5;" width="103.1279" x="17" y="288"/><ellipse cx="32" cy="304" fill="#ADD1B2" rx="11" ry="11" style="stroke:#181818;stroke-width:1.0;"/><path d="M34.9688,309.6406 Q34.3906,309.9375 33.75,310.0781 Q33.1094,310.2344 32.4063,310.2344 Q29.9063,310.2344 28.5781,308.5938 Q27.2656,306.9375 27.2656,303.8125 Q27.2656,300.6875 28.5781,299.0313 Q29.9063,297.375 32.4063,297.375 Q33.1094,297.375 33.75,297.5313 Q34.4063,297.6875 34.9688,297.9844 L34.9688,300.7031 Q34.3438,300.125 33.75,299.8594 Q33.1563,299.5781 32.5313,299.5781 Q31.1875,299.5781 30.5,300.6563 Q29.8125,301.7188 29.8125,303.8125 Q29.8125,305.9063 30.5,306.9844 Q31.1875,308.0469 32.5313,308.0469 Q33.1563,308.0469 33.75,307.7813 Q34.3438,307.5 34.9688,306.9219 L34.9688,309.6406 Z " fill="#000000"/><text fill="#000000" font-family="sans-serif" font-size="14" lengthAdjust="spacing" textLength="71.1279" x="46" y="308.8467">Incidencia</text><line style="stroke:#181818;stroke-width:0.5;" x1="18" x2="119.1279" y1="320" y2="320"/><line style="stroke:#181818;stroke-width:0.5;" x1="18" x2="119.1279" y1="328" y2="328"/></g><!--class Viaje--><g id="elem_Viaje"><rect codeLine="47" fill="#F1F1F1" height="48" id="Viaje" rx="2.5" ry="2.5" style="stroke:#181818;stroke-width:0.5;" width="66.5488" x="425" y="413"/><ellipse cx="440" cy="429" fill="#ADD1B2" rx="11" ry="11" style="stroke:#181818;stroke-width:1.0;"/><path d="M442.9688,434.6406 Q442.3906,434.9375 441.75,435.0781 Q441.1094,435.2344 440.4063,435.2344 Q437.9063,435.2344 436.5781,433.5938 Q435.2656,431.9375 435.2656,428.8125 Q435.2656,425.6875 436.5781,424.0313 Q437.9063,422.375 440.4063,422.375 Q441.1094,422.375 441.75,422.5313 Q442.4063,422.6875 442.9688,422.9844 L442.9688,425.7031 Q442.3438,425.125 441.75,424.8594 Q441.1563,424.5781 440.5313,424.5781 Q439.1875,424.5781 438.5,425.6563 Q437.8125,426.7188 437.8125,428.8125 Q437.8125,430.9063 438.5,431.9844 Q439.1875,433.0469 440.5313,433.0469 Q441.1563,433.0469 441.75,432.7813 Q442.3438,432.5 442.9688,431.9219 L442.9688,434.6406 Z " fill="#000000"/><text fill="#000000" font-family="sans-serif" font-size="14" lengthAdjust="spacing" textLength="34.5488" x="454" y="433.8467">Viaje</text><line style="stroke:#181818;stroke-width:0.5;" x1="426" x2="490.5488" y1="445" y2="445"/><line style="stroke:#181818;stroke-width:0.5;" x1="426" x2="490.5488" y1="453" y2="453"/></g><!--link Servicio to Persona--><g id="link_Servicio_Persona"><path codeLine="50" d="M296.79,55.14 C307.51,77.13 320.9179,104.6181 331.6379,126.5781 " fill="none" id="Servicio-to-Persona" style="stroke:#181818;stroke-width:1.0;"/><polygon fill="#181818" points="334.27,131.97,333.9164,122.1275,332.0766,127.4768,326.7273,125.6369,334.27,131.97" style="stroke:#181818;stroke-width:1.0;"/><text fill="#000000" font-family="sans-serif" font-size="13" lengthAdjust="spacing" textLength="32.9443" x="320.5" y="98.0669">tiene</text></g><!--link Servicio to SistemaDePago--><g id="link_Servicio_SistemaDePago"><path codeLine="51" d="M329.73,53.85 C374.17,75.8 437.0207,106.8424 482.3407,129.2324 " fill="none" id="Servicio-to-SistemaDePago" style="stroke:#181818;stroke-width:1.0;"/><polygon fill="#181818" points="487.72,131.89,481.4228,124.3174,483.2372,129.6753,477.8793,131.4898,487.72,131.89" style="stroke:#181818;stroke-width:1.0;"/></g><!--link Servicio to Flota--><g id="link_Servicio_Flota"><path codeLine="52" d="M278.28,55.06 C275.57,64.3 272.63,75.09 270.5,85 C261.11,128.68 255.1001,174.5198 251.7101,203.7998 " fill="none" id="Servicio-to-Flota" style="stroke:#181818;stroke-width:1.0;"/><polygon fill="#181818" points="251.02,209.76,256.0286,201.2798,251.5951,204.7932,248.0816,200.3597,251.02,209.76" style="stroke:#181818;stroke-width:1.0;"/><text fill="#000000" font-family="sans-serif" font-size="13" lengthAdjust="spacing" textLength="32.9443" x="271.5" y="98.0669">tiene</text></g><!--link Servicio to GestionDeIncidencias--><g id="link_Servicio_GestionDeIncidencias"><path codeLine="53" d="M250.33,55.14 C216.89,77.13 171.9125,106.7124 138.5325,128.6724 " fill="none" id="Servicio-to-GestionDeIncidencias" style="stroke:#181818;stroke-width:1.0;"/><polygon fill="#181818" points="133.52,131.97,143.2372,130.3652,137.6971,129.222,138.8404,123.6818,133.52,131.97" style="stroke:#181818;stroke-width:1.0;"/></g><!--link Persona to Pasajero--><g id="link_Persona_Pasajero"><path codeLine="55" d="M359.12,180.06 C376.28,209.09 405.58,258.68 422.78,287.79 " fill="none" id="Persona-Pasajero" style="stroke:#181818;stroke-width:1.0;"/></g><!--link Persona to Conductor--><g id="link_Persona_Conductor"><path codeLine="56" d="M344.83,180.31 C343.32,232.96 339.66,360.56 338.16,412.96 " fill="none" id="Persona-Conductor" style="stroke:#181818;stroke-width:1.0;"/></g><!--link Pasajero to Viaje--><g id="link_Pasajero_Viaje"><path codeLine="58" d="M440.64,336.14 C444.57,358.13 449.393,385.1038 453.323,407.0638 " fill="none" id="Pasajero-to-Viaje" style="stroke:#181818;stroke-width:1.0;"/><polygon fill="#181818" points="454.38,412.97,456.732,403.4061,453.4992,408.0482,448.8571,404.8154,454.38,412.97" style="stroke:#181818;stroke-width:1.0;"/><text fill="#000000" font-family="sans-serif" font-size="13" lengthAdjust="spacing" textLength="43.3228" x="450.5" y="379.0669">realiza</text></g><!--link Conductor to Vehiculo--><g id="link_Conductor_Vehiculo"><path codeLine="59" d="M308.57,461 C300.14,469.44 291.98,479.71 287.5,491 C281.62,505.81 281.5693,517.869 283.8693,531.899 " fill="none" id="Conductor-to-Vehiculo" style="stroke:#181818;stroke-width:1.0;"/><polygon fill="#181818" points="284.84,537.82,287.3313,528.2915,284.0311,532.8859,279.4367,529.5857,284.84,537.82" style="stroke:#181818;stroke-width:1.0;"/><text fill="#000000" font-family="sans-serif" font-size="13" lengthAdjust="spacing" textLength="54.9771" x="288.5" y="504.0669">conduce</text></g><!--link Viaje to Vehiculo--><g id="link_Viaje_Vehiculo"><path codeLine="61" d="M425.49,461.01 C412.36,470.24 397.15,481.04 383.5,491 C362.44,506.36 343.7683,520.3913 325.6883,534.1213 " fill="none" id="Viaje-to-Vehiculo" style="stroke:#181818;stroke-width:1.0;"/><polygon fill="#181818" points="320.91,537.75,330.4966,535.4925,324.892,534.7261,325.6584,529.1214,320.91,537.75" style="stroke:#181818;stroke-width:1.0;"/><text fill="#000000" font-family="sans-serif" font-size="13" lengthAdjust="spacing" textLength="22.9785" x="384.5" y="504.0669">usa</text></g><!--link Viaje to Ruta--><g id="link_Viaje_Ruta"><path codeLine="62" d="M453.29,461.04 C443.69,499.72 420.24,578.78 378.5,633 C368.37,646.17 359.1089,654.3231 346.1489,663.2631 " fill="none" id="Viaje-to-Ruta" style="stroke:#181818;stroke-width:1.0;"/><polygon fill="#181818" points="341.21,666.67,350.8897,664.8522,345.3258,663.8309,346.3471,658.267,341.21,666.67" style="stroke:#181818;stroke-width:1.0;"/><text fill="#000000" font-family="sans-serif" font-size="13" lengthAdjust="spacing" textLength="34.874" x="429.5" y="566.5669">sigue</text></g><!--link Viaje to Horario--><g id="link_Viaje_Horario"><path codeLine="63" d="M463.39,461.14 C465.21,470.39 467.16,481.17 468.5,491 C471.34,511.77 471.61,517.05 472.5,538 C476.43,630.61 463.0727,734.5953 456.0627,781.7253 " fill="none" id="Viaje-to-Horario" style="stroke:#181818;stroke-width:1.0;"/><polygon fill="#181818" points="455.18,787.66,460.4605,779.3464,455.9156,782.7144,452.5476,778.1695,455.18,787.66" style="stroke:#181818;stroke-width:1.0;"/><text fill="#000000" font-family="sans-serif" font-size="13" lengthAdjust="spacing" textLength="96.4019" x="473.5" y="629.0669">programadoEn</text></g><!--link SistemaDePago to FormaDePago--><g id="link_SistemaDePago_FormaDePago"><path codeLine="65" d="M541.69,180.06 C550.74,209.09 564.4052,252.9516 573.4752,282.0616 " fill="none" id="SistemaDePago-to-FormaDePago" style="stroke:#181818;stroke-width:1.0;"/><polygon fill="#181818" points="575.26,287.79,576.4017,278.0075,573.7726,283.0163,568.7638,280.3873,575.26,287.79" style="stroke:#181818;stroke-width:1.0;"/><text fill="#000000" font-family="sans-serif" font-size="13" lengthAdjust="spacing" textLength="44.4272" x="567.5" y="238.5669">acepta</text></g><!--reverse link FormaDePago to Tarifa--><g id="link_FormaDePago_Tarifa"><path codeLine="66" d="M579.4956,354.0919 C577.8856,376.0819 576.79,391.01 575.19,412.97 " fill="none" id="FormaDePago-backto-Tarifa" style="stroke:#181818;stroke-width:1.0;"/><polygon fill="none" points="580.81,336.14,573.5117,353.6538,585.4796,354.5301,580.81,336.14" style="stroke:#181818;stroke-width:1.0;"/></g><!--reverse link FormaDePago to Abono--><g id="link_FormaDePago_Abono"><path codeLine="67" d="M612.6657,350.106 C630.5457,372.096 645.92,391.01 663.78,412.97 " fill="none" id="FormaDePago-backto-Abono" style="stroke:#181818;stroke-width:1.0;"/><polygon fill="none" points="601.31,336.14,608.0104,353.8912,617.321,346.3207,601.31,336.14" style="stroke:#181818;stroke-width:1.0;"/></g><!--link Flota to Vehiculo--><g id="link_Flota_Vehiculo"><path codeLine="69" d="M248.99,258.32 C250.4,305.86 255.83,417.18 276.5,508 C278.74,517.84 279.9561,522.8174 282.4561,532.0774 " fill="none" id="Flota-to-Vehiculo" style="stroke:#181818;stroke-width:1.0;"/><polygon fill="#181818" points="284.02,537.87,285.5359,528.1385,282.7168,533.0428,277.8124,530.2237,284.02,537.87" style="stroke:#181818;stroke-width:1.0;"/><text fill="#000000" font-family="sans-serif" font-size="13" lengthAdjust="spacing" textLength="56.2847" x="258.5" y="379.0669">contiene</text></g><!--link Vehiculo to Ruta--><g id="link_Vehiculo_Ruta"><path codeLine="71" d="M293.89,586.14 C297.1,608.13 301.0522,635.0731 304.2622,657.0331 " fill="none" id="Vehiculo-to-Ruta" style="stroke:#181818;stroke-width:1.0;"/><polygon fill="#181818" points="305.13,662.97,307.7862,653.4861,304.4068,658.0226,299.8703,654.6432,305.13,662.97" style="stroke:#181818;stroke-width:1.0;"/><text fill="#000000" font-family="sans-serif" font-size="13" lengthAdjust="spacing" textLength="67.9072" x="302.5" y="629.0669">asignadoA</text></g><!--link Ruta to Parada--><g id="link_Ruta_Parada"><path codeLine="72" d="M308.5,711.14 C308.5,733.13 308.5,760.01 308.5,781.97 " fill="none" id="Ruta-to-Parada" style="stroke:#181818;stroke-width:1.0;"/><polygon fill="#181818" points="308.5,787.97,312.5,778.97,308.5,782.97,304.5,778.97,308.5,787.97" style="stroke:#181818;stroke-width:1.0;"/><text fill="#000000" font-family="sans-serif" font-size="13" lengthAdjust="spacing" textLength="46.541" x="309.5" y="754.0669">incluye</text></g><!--link Ruta to Horario--><g id="link_Ruta_Horario"><path codeLine="73" d="M335.4,711.14 C360.96,733.13 394.652,762.0965 420.172,784.0565 " fill="none" id="Ruta-to-Horario" style="stroke:#181818;stroke-width:1.0;"/><polygon fill="#181818" points="424.72,787.97,420.5071,779.0677,420.93,784.7087,415.289,785.1317,424.72,787.97" style="stroke:#181818;stroke-width:1.0;"/><text fill="#000000" font-family="sans-serif" font-size="13" lengthAdjust="spacing" textLength="56.2847" x="390.5" y="754.0669">contiene</text></g><!--link GestionDeIncidencias to Incidencia--><g id="link_GestionDeIncidencias_Incidencia"><path codeLine="75" d="M94.01,180.06 C88.35,209.09 79.8371,252.7907 74.1671,281.9007 " fill="none" id="GestionDeIncidencias-to-Incidencia" style="stroke:#181818;stroke-width:1.0;"/><polygon fill="#181818" points="73.02,287.79,78.6669,279.7208,73.9759,282.8822,70.8145,278.1913,73.02,287.79" style="stroke:#181818;stroke-width:1.0;"/></g><!--link Incidencia to Vehiculo--><g id="link_Incidencia_Vehiculo"><path codeLine="76" d="M74.26,336.07 C78.38,350.23 84.76,368.38 93.5,383 C131.94,447.27 149.19,459.79 206.5,508 C219.43,518.88 229.6549,526.0538 243.6649,534.6438 " fill="none" id="Incidencia-to-Vehiculo" style="stroke:#181818;stroke-width:1.0;"/><polygon fill="#181818" points="248.78,537.78,243.1982,529.6656,244.5174,535.1665,239.0166,536.4857,248.78,537.78" style="stroke:#181818;stroke-width:1.0;"/><text fill="#000000" font-family="sans-serif" font-size="13" lengthAdjust="spacing" textLength="40.752" x="153.5" y="441.5669">afecta</text></g><!--link Incidencia to Ruta--><g id="link_Incidencia_Ruta"><path codeLine="77" d="M70.22,336.24 C71.54,349.98 73.8,367.63 77.5,383 C91.43,440.86 91.86,458.91 125.5,508 C169.22,571.8 233.6708,627.5994 273.2608,659.0294 " fill="none" id="Incidencia-to-Ruta" style="stroke:#181818;stroke-width:1.0;"/><polygon fill="#181818" points="277.96,662.76,273.3983,654.0313,274.044,659.6511,268.4241,660.2969,277.96,662.76" style="stroke:#181818;stroke-width:1.0;"/><text fill="#000000" font-family="sans-serif" font-size="13" lengthAdjust="spacing" textLength="52.7046" x="126.5" y="504.0669">impacta</text></g><!--link Incidencia to Conductor--><g id="link_Incidencia_Conductor"><path codeLine="78" d="M79.51,336.22 C88.03,351.74 101.3,371.38 118.5,383 C168.59,416.83 232.0063,428.5689 279.1663,432.9989 " fill="none" id="Incidencia-to-Conductor" style="stroke:#181818;stroke-width:1.0;"/><polygon fill="#181818" points="285.14,433.56,276.5535,428.7358,280.1619,433.0924,275.8054,436.7008,285.14,433.56" style="stroke:#181818;stroke-width:1.0;"/><text fill="#000000" font-family="sans-serif" font-size="13" lengthAdjust="spacing" textLength="85.3125" x="119.5" y="379.0669">reportadaPor</text></g><!--SRC=[RL99RiCm3Bpp5Vg0Fo0K1OAcsor8YjvPcKbLsA8XoGMw_RsA55jIx8i1pmp5uP2gG-V4WUodLfh53_m1g8Zjo3esM47ey8Di9RjZquxAiot1WtQUUjpI3a-L-e7j6lo2LX-hLfitDdLbnxvIlDAxLcDNYVQZlp9iiRqW5-Y9RMXMLJsIyvhDbfwDqYs53xgIpt3LNuSi4Z37rpItSsvIU4s6Qh8EfkRIXAjbQmu1favDCs-cnERD1EMqkFDZoRWKbh3JtmXvWv6TOfL2HO80KiKLEpeiY9Yy54wVHYhWAMqf1iidYpssV6z2ObKESVhYCgH0HOD7AC6Rtp1JEfGb7iy584Mu72D52ZDOECPWsGHN6uX0t62w6YcqKTtuHPd9u-H7Lw_dBCx_K5pGbJayal8BmSMRxWTSOVF2paiSsFfWTyVs7m00]--></g></svg>