<svg xmlns="http://www.w3.org/2000/svg" xmlns:xlink="http://www.w3.org/1999/xlink" contentStyleType="text/css" height="591px" preserveAspectRatio="none" style="width:279px;height:591px;background:#FFFFFF;" version="1.1" viewBox="0 0 279 591" width="279px" zoomAndPan="magnify"><title>Diagrama de Estados - Pasajero</title><defs/><g><text fill="#000000" font-family="sans-serif" font-size="14" font-weight="bold" lengthAdjust="spacing" textLength="251.4121" x="10" y="22.9951">Diagrama de Estados - Pasajero</text><ellipse cx="148.0283" cy="53.2969" fill="#222222" rx="10" ry="10" style="stroke:#222222;stroke-width:1.0;"/><g id="EsperaEnParada"><rect fill="#F1F1F1" height="50" rx="12.5" ry="12.5" style="stroke:#181818;stroke-width:0.5;" width="134.5156" x="80.5283" y="123.2969"/><line style="stroke:#181818;stroke-width:0.5;" x1="80.5283" x2="215.0439" y1="149.5938" y2="149.5938"/><text fill="#000000" font-family="sans-serif" font-size="14" lengthAdjust="spacing" textLength="114.5156" x="90.5283" y="141.292">EsperaEnParada</text></g><g id="SubeAlBus"><rect fill="#F1F1F1" height="50" rx="12.5" ry="12.5" style="stroke:#181818;stroke-width:0.5;" width="94.498" x="51.0283" y="233.2969"/><line style="stroke:#181818;stroke-width:0.5;" x1="51.0283" x2="145.5264" y1="259.5938" y2="259.5938"/><text fill="#000000" font-family="sans-serif" font-size="14" lengthAdjust="spacing" textLength="74.498" x="61.0283" y="251.292">SubeAlBus</text></g><g id="PagaTarifa"><rect fill="#F1F1F1" height="50" rx="12.5" ry="12.5" style="stroke:#181818;stroke-width:0.5;" width="94.7715" x="49.5283" y="343.2969"/><line style="stroke:#181818;stroke-width:0.5;" x1="49.5283" x2="144.2998" y1="369.5938" y2="369.5938"/><text fill="#000000" font-family="sans-serif" font-size="14" lengthAdjust="spacing" textLength="74.7715" x="59.5283" y="361.292">PagaTarifa</text></g><g id="SaleEnParadaDeseada"><rect fill="#F1F1F1" height="50" rx="12.5" ry="12.5" style="stroke:#181818;stroke-width:0.5;" width="177.8555" x="58.0283" y="453.2969"/><line style="stroke:#181818;stroke-width:0.5;" x1="58.0283" x2="235.8838" y1="479.5938" y2="479.5938"/><text fill="#000000" font-family="sans-serif" font-size="14" lengthAdjust="spacing" textLength="157.8555" x="68.0283" y="471.292">SaleEnParadaDeseada</text></g><ellipse cx="147.0283" cy="574.2969" fill="none" rx="11" ry="11" style="stroke:#222222;stroke-width:1.0;"/><ellipse cx="147.0283" cy="574.2969" fill="#222222" rx="6" ry="6" style="stroke:#222222;stroke-width:1.0;"/><!--link *start* to EsperaEnParada--><g id="link_*start*_EsperaEnParada"><path d="M148.0283,63.5569 C148.0283,77.3369 148.0283,97.7169 148.0283,117.2069 " fill="none" id="*start*-to-EsperaEnParada" style="stroke:#181818;stroke-width:1.0;"/><polygon fill="#181818" points="148.0283,123.2069,152.0283,114.2069,148.0283,118.2069,144.0283,114.2069,148.0283,123.2069" style="stroke:#181818;stroke-width:1.0;"/></g><!--link EsperaEnParada to SubeAlBus--><g id="link_EsperaEnParada_SubeAlBus"><path d="M136.8083,173.5369 C128.5683,191.3169 119.961,209.933 111.731,227.693 " fill="none" id="EsperaEnParada-to-SubeAlBus" style="stroke:#181818;stroke-width:1.0;"/><polygon fill="#181818" points="109.2083,233.1369,116.6216,226.6528,111.3106,228.6003,109.3631,223.2892,109.2083,233.1369" style="stroke:#181818;stroke-width:1.0;"/></g><!--link SubeAlBus to PagaTarifa--><g id="link_SubeAlBus_PagaTarifa"><path d="M97.8083,283.5369 C97.6383,301.3169 97.4758,319.3771 97.3058,337.1371 " fill="none" id="SubeAlBus-to-PagaTarifa" style="stroke:#181818;stroke-width:1.0;"/><polygon fill="#181818" points="97.2483,343.1369,101.3343,334.1756,97.2962,338.1371,93.3346,334.099,97.2483,343.1369" style="stroke:#181818;stroke-width:1.0;"/></g><!--link PagaTarifa to SaleEnParadaDeseada--><g id="link_PagaTarifa_SaleEnParadaDeseada"><path d="M108.2483,393.5369 C116.4883,411.3169 125.0956,429.933 133.3256,447.693 " fill="none" id="PagaTarifa-to-SaleEnParadaDeseada" style="stroke:#181818;stroke-width:1.0;"/><polygon fill="#181818" points="135.8483,453.1369,135.6935,443.2892,133.7461,448.6003,128.435,446.6528,135.8483,453.1369" style="stroke:#181818;stroke-width:1.0;"/></g><!--link SaleEnParadaDeseada to EsperaEnParada--><g id="link_SaleEnParadaDeseada_EsperaEnParada"><path d="M152.4383,453.1869 C155.9183,436.4669 160.1283,413.6569 162.0283,393.2969 C165.1183,360.1469 165.1283,257.0269 163.0283,233.2969 C161.2283,212.9369 158.2417,195.9887 154.7317,179.2787 " fill="none" id="SaleEnParadaDeseada-to-EsperaEnParada" style="stroke:#181818;stroke-width:1.0;"/><polygon fill="#181818" points="153.4983,173.4069,151.4339,183.0369,154.5262,178.3001,159.263,181.3924,153.4983,173.4069" style="stroke:#181818;stroke-width:1.0;"/></g><!--link SaleEnParadaDeseada to *end*--><g id="link_SaleEnParadaDeseada_*end*"><path d="M147.0283,503.5069 C147.0283,522.8669 147.0283,543.0469 147.0283,557.1969 " fill="none" id="SaleEnParadaDeseada-to-*end*" style="stroke:#181818;stroke-width:1.0;"/><polygon fill="#181818" points="147.0283,563.1969,151.0283,554.1969,147.0283,558.1969,143.0283,554.1969,147.0283,563.1969" style="stroke:#181818;stroke-width:1.0;"/></g><!--SRC=[TOx12eD034Jl-OgSXVs5WgBtXVOc7gPib2tRAidw_rs5qWhsbicR6IR7d8JRY4dn10VXpZB2REpOm_0GdOdwQc3dBeKjekXU7ee0egFUBTVrBdLgLcEYxxqHZmatQ1nHq8_OKqZogMd5P6ih-PFlsOn_lZBx3G00]--></g></svg>