<svg xmlns="http://www.w3.org/2000/svg" xmlns:xlink="http://www.w3.org/1999/xlink" contentStyleType="text/css" height="688px" preserveAspectRatio="none" style="width:729px;height:688px;background:#FFFFFF;" version="1.1" viewBox="0 0 729 688" width="729px" zoomAndPan="magnify"><title>Diagrama de Estados - Veh&#237;culo</title><defs/><g><text fill="#000000" font-family="sans-serif" font-size="14" font-weight="bold" lengthAdjust="spacing" textLength="250.8857" x="232.4872" y="22.9951">Diagrama de Estados - Veh&#237;culo</text><ellipse cx="521.55" cy="53.2969" fill="#222222" rx="10" ry="10" style="stroke:#222222;stroke-width:1.0;"/><g id="EnEstacion"><rect fill="#F1F1F1" height="50" rx="12.5" ry="12.5" style="stroke:#181818;stroke-width:0.5;" width="96.9521" x="473.05" y="124.2969"/><line style="stroke:#181818;stroke-width:0.5;" x1="473.05" x2="570.0021" y1="150.5938" y2="150.5938"/><text fill="#000000" font-family="sans-serif" font-size="14" lengthAdjust="spacing" textLength="76.9521" x="483.05" y="142.292">EnEstacion</text></g><g id="SaleDeLaEstacion"><rect fill="#F1F1F1" height="50" rx="12.5" ry="12.5" style="stroke:#181818;stroke-width:0.5;" width="144.9746" x="342.05" y="251.2969"/><line style="stroke:#181818;stroke-width:0.5;" x1="342.05" x2="487.0246" y1="277.5938" y2="277.5938"/><text fill="#000000" font-family="sans-serif" font-size="14" lengthAdjust="spacing" textLength="124.9746" x="352.05" y="269.292">SaleDeLaEstacion</text></g><g id="EnRuta"><rect fill="#F1F1F1" height="50" rx="12.5" ry="12.5" style="stroke:#181818;stroke-width:0.5;" width="70.3877" x="204.55" y="378.2969"/><line style="stroke:#181818;stroke-width:0.5;" x1="204.55" x2="274.9377" y1="404.5938" y2="404.5938"/><text fill="#000000" font-family="sans-serif" font-size="14" lengthAdjust="spacing" textLength="50.3877" x="214.55" y="396.292">EnRuta</text></g><g id="ParaEnParada"><rect fill="#F1F1F1" height="50" rx="12.5" ry="12.5" style="stroke:#181818;stroke-width:0.5;" width="117.8975" x="48.55" y="505.2969"/><line style="stroke:#181818;stroke-width:0.5;" x1="48.55" x2="166.4475" y1="531.5938" y2="531.5938"/><text fill="#000000" font-family="sans-serif" font-size="14" lengthAdjust="spacing" textLength="97.8975" x="58.55" y="523.292">ParaEnParada</text></g><g id="CompletaRuta"><rect fill="#F1F1F1" height="50" rx="12.5" ry="12.5" style="stroke:#181818;stroke-width:0.5;" width="120.1055" x="393.55" y="505.2969"/><line style="stroke:#181818;stroke-width:0.5;" x1="393.55" x2="513.6555" y1="531.5938" y2="531.5938"/><text fill="#000000" font-family="sans-serif" font-size="14" lengthAdjust="spacing" textLength="100.1055" x="403.55" y="523.292">CompletaRuta</text></g><g id="VuelveAEstacion"><rect fill="#F1F1F1" height="50" rx="12.5" ry="12.5" style="stroke:#181818;stroke-width:0.5;" width="136.6621" x="461.05" y="632.2969"/><line style="stroke:#181818;stroke-width:0.5;" x1="461.05" x2="597.7121" y1="658.5938" y2="658.5938"/><text fill="#000000" font-family="sans-serif" font-size="14" lengthAdjust="spacing" textLength="116.6621" x="471.05" y="650.292">VuelveAEstacion</text></g><!--link *start* to EnEstacion--><g id="link_*start*_EnEstacion"><path d="M521.55,63.3069 C521.55,77.1869 521.55,98.2669 521.55,118.1369 " fill="none" id="*start*-to-EnEstacion" style="stroke:#181818;stroke-width:1.0;"/><polygon fill="#181818" points="521.55,124.1369,525.55,115.1369,521.55,119.1369,517.55,115.1369,521.55,124.1369" style="stroke:#181818;stroke-width:1.0;"/></g><!--link EnEstacion to SaleDeLaEstacion--><g id="link_EnEstacion_SaleDeLaEstacion"><path d="M491.75,174.4569 C481.63,183.3269 470.61,193.7869 461.55,204.2969 C449,218.8569 440.2033,231.8139 431.5033,246.0839 " fill="none" id="EnEstacion-to-SaleDeLaEstacion" style="stroke:#181818;stroke-width:1.0;"/><polygon fill="#181818" points="428.38,251.2069,436.4803,245.6046,430.9828,246.9377,429.6497,241.4402,428.38,251.2069" style="stroke:#181818;stroke-width:1.0;"/><text fill="#000000" font-family="sans-serif" font-size="13" lengthAdjust="spacing" textLength="123.3794" x="462.55" y="217.3638">Inicio de operaci&#243;n</text></g><!--link SaleDeLaEstacion to EnRuta--><g id="link_SaleDeLaEstacion_EnRuta"><path d="M380.81,301.3969 C349.82,323.5369 309.0222,352.6691 278.0722,374.7791 " fill="none" id="SaleDeLaEstacion-to-EnRuta" style="stroke:#181818;stroke-width:1.0;"/><polygon fill="#181818" points="273.19,378.2669,282.8384,376.2901,277.2585,375.3604,278.1881,369.7805,273.19,378.2669" style="stroke:#181818;stroke-width:1.0;"/><text fill="#000000" font-family="sans-serif" font-size="13" lengthAdjust="spacing" textLength="190.4551" x="338.55" y="344.3638">Se dirige a la primera parada</text></g><!--link EnRuta to ParaEnParada--><g id="link_EnRuta_ParaEnParada"><path d="M204.42,407.7669 C148.44,414.1169 43.01,429.6269 20.55,458.2969 C6,476.8669 19.3445,490.926 43.0545,503.556 " fill="none" id="EnRuta-to-ParaEnParada" style="stroke:#181818;stroke-width:1.0;"/><polygon fill="#181818" points="48.35,506.3769,42.2873,498.6152,43.9371,504.0262,38.5261,505.6759,48.35,506.3769" style="stroke:#181818;stroke-width:1.0;"/><text fill="#000000" font-family="sans-serif" font-size="13" lengthAdjust="spacing" textLength="125.6265" x="21.55" y="471.3638">Llega a una parada</text></g><!--link ParaEnParada to EnRuta--><g id="link_ParaEnParada_EnRuta"><path d="M132.92,505.2669 C156.27,483.1569 186.3634,454.6624 209.7434,432.5224 " fill="none" id="ParaEnParada-to-EnRuta" style="stroke:#181818;stroke-width:1.0;"/><polygon fill="#181818" points="214.1,428.3969,204.8147,431.6808,210.4695,431.8348,210.3155,437.4896,214.1,428.3969" style="stroke:#181818;stroke-width:1.0;"/><text fill="#000000" font-family="sans-serif" font-size="13" lengthAdjust="spacing" textLength="227.0303" x="182.55" y="471.3638">Contin&#250;a hacia la siguiente parada</text></g><!--link EnRuta to CompletaRuta--><g id="link_EnRuta_CompletaRuta"><path d="M274.77,406.6769 C314,411.0269 377.31,423.3569 418.55,458.2969 C432.81,470.3769 439.8541,483.9812 445.1441,499.4112 " fill="none" id="EnRuta-to-CompletaRuta" style="stroke:#181818;stroke-width:1.0;"/><polygon fill="#181818" points="447.09,505.0869,447.955,495.2761,445.4685,500.3571,440.3874,497.8705,447.09,505.0869" style="stroke:#181818;stroke-width:1.0;"/><text fill="#000000" font-family="sans-serif" font-size="13" lengthAdjust="spacing" textLength="116.8477" x="433.55" y="471.3638">Termina recorrido</text></g><!--link CompletaRuta to VuelveAEstacion--><g id="link_CompletaRuta_VuelveAEstacion"><path d="M443.6,555.3469 C439.25,569.7769 436.71,588.0269 444.55,602.2969 C451.28,614.5569 457.1138,621.1046 468.8138,628.8846 " fill="none" id="CompletaRuta-to-VuelveAEstacion" style="stroke:#181818;stroke-width:1.0;"/><polygon fill="#181818" points="473.81,632.2069,468.5305,623.8926,469.6465,629.4383,464.1008,630.5543,473.81,632.2069" style="stroke:#181818;stroke-width:1.0;"/><text fill="#000000" font-family="sans-serif" font-size="13" lengthAdjust="spacing" textLength="140.0928" x="445.55" y="598.3638">Regresa a la estaci&#243;n</text></g><!--link VuelveAEstacion to EnEstacion--><g id="link_VuelveAEstacion_EnEstacion"><path d="M563.25,632.2069 C573.2,623.7169 583.34,613.4669 590.55,602.2969 C608.47,574.5469 612.55,564.3369 612.55,531.2969 C612.55,275.2969 612.55,275.2969 612.55,275.2969 C612.55,242.2569 609.3,231.4969 590.55,204.2969 C582.69,192.8969 576.4715,186.4246 565.5715,178.1146 " fill="none" id="VuelveAEstacion-to-EnEstacion" style="stroke:#181818;stroke-width:1.0;"/><polygon fill="#181818" points="560.8,174.4769,565.5321,183.1144,564.7762,177.5083,570.3824,176.7525,560.8,174.4769" style="stroke:#181818;stroke-width:1.0;"/><text fill="#000000" font-family="sans-serif" font-size="13" lengthAdjust="spacing" textLength="108.3101" x="613.55" y="407.8638">Fin de operaci&#243;n</text></g><!--SRC=[RP2nQWCn38PtFuNcmhr0Xq99hb3849AG9NGGTy8H-EH3P_UjEcNhUYzM-HBIkkqcVlsVVljFd0B1cj4h3WWzGJibxEC43HpfF7zqEKJdJWzlq3HFq4fPTnp5VO_BPe-1rhJ1k_W8hy8sbPjn93LrleZxuxkUtUM4Xkm9UbRs10W1OLGUZ8GH5NjqDriXjgQqibrqupQ1F1gJvMwk75N8AafYcJyHplQ49MXYdvaaqJzHgpYCWHBUw0Ffm1QZr4LLxgEh38KuPWhlzFoZYXrvfGcllw95BsNyDjOL6_V2KlVt1G00]--></g></svg>