<svg xmlns="http://www.w3.org/2000/svg" xmlns:xlink="http://www.w3.org/1999/xlink" contentStyleType="text/css" height="1565px" preserveAspectRatio="none" style="width:563px;height:1565px;background:#FFFFFF;" version="1.1" viewBox="0 0 563 1565" width="563px" zoomAndPan="magnify"><title>Diagrama de Estados - Conductor</title><defs/><g><text fill="#000000" font-family="sans-serif" font-size="14" font-weight="bold" lengthAdjust="spacing" textLength="264.4688" x="142.6164" y="22.9951">Diagrama de Estados - Conductor</text><ellipse cx="200.77" cy="53.2969" fill="#222222" rx="10" ry="10" style="stroke:#222222;stroke-width:1.0;"/><g id="SeReportaAlTrabajo"><rect fill="#F1F1F1" height="50" rx="12.5" ry="12.5" style="stroke:#181818;stroke-width:0.5;" width="159.3916" x="121.27" y="140.2969"/><line style="stroke:#181818;stroke-width:0.5;" x1="121.27" x2="280.6616" y1="166.5938" y2="166.5938"/><text fill="#000000" font-family="sans-serif" font-size="14" lengthAdjust="spacing" textLength="139.3916" x="131.27" y="158.292">SeReportaAlTrabajo</text></g><g id="RealizaInspeccionInicial"><rect fill="#F1F1F1" height="50" rx="12.5" ry="12.5" style="stroke:#181818;stroke-width:0.5;" width="186.0928" x="107.77" y="267.2969"/><line style="stroke:#181818;stroke-width:0.5;" x1="107.77" x2="293.8628" y1="293.5938" y2="293.5938"/><text fill="#000000" font-family="sans-serif" font-size="14" lengthAdjust="spacing" textLength="166.0928" x="117.77" y="285.292">RealizaInspeccionInicial</text></g><g id="EsperaAsignacion"><rect fill="#F1F1F1" height="50" rx="12.5" ry="12.5" style="stroke:#181818;stroke-width:0.5;" width="144.0996" x="128.77" y="394.2969"/><line style="stroke:#181818;stroke-width:0.5;" x1="128.77" x2="272.8696" y1="420.5938" y2="420.5938"/><text fill="#000000" font-family="sans-serif" font-size="14" lengthAdjust="spacing" textLength="124.0996" x="138.77" y="412.292">EsperaAsignacion</text></g><g id="RecibeRutaAsignada"><rect fill="#F1F1F1" height="50" rx="12.5" ry="12.5" style="stroke:#181818;stroke-width:0.5;" width="164.6621" x="118.27" y="521.2969"/><line style="stroke:#181818;stroke-width:0.5;" x1="118.27" x2="282.9321" y1="547.5938" y2="547.5938"/><text fill="#000000" font-family="sans-serif" font-size="14" lengthAdjust="spacing" textLength="144.6621" x="128.27" y="539.292">RecibeRutaAsignada</text></g><g id="SubeAlBus"><rect fill="#F1F1F1" height="50" rx="12.5" ry="12.5" style="stroke:#181818;stroke-width:0.5;" width="94.498" x="153.77" y="648.2969"/><line style="stroke:#181818;stroke-width:0.5;" x1="153.77" x2="248.268" y1="674.5938" y2="674.5938"/><text fill="#000000" font-family="sans-serif" font-size="14" lengthAdjust="spacing" textLength="74.498" x="163.77" y="666.292">SubeAlBus</text></g><g id="VerificaBus"><rect fill="#F1F1F1" height="50" rx="12.5" ry="12.5" style="stroke:#181818;stroke-width:0.5;" width="98.7021" x="151.27" y="775.2969"/><line style="stroke:#181818;stroke-width:0.5;" x1="151.27" x2="249.9721" y1="801.5938" y2="801.5938"/><text fill="#000000" font-family="sans-serif" font-size="14" lengthAdjust="spacing" textLength="78.7021" x="161.27" y="793.292">VerificaBus</text></g><g id="IniciaRuta"><rect fill="#F1F1F1" height="50" rx="12.5" ry="12.5" style="stroke:#181818;stroke-width:0.5;" width="89.7266" x="155.77" y="902.2969"/><line style="stroke:#181818;stroke-width:0.5;" x1="155.77" x2="245.4966" y1="928.5938" y2="928.5938"/><text fill="#000000" font-family="sans-serif" font-size="14" lengthAdjust="spacing" textLength="69.7266" x="165.77" y="920.292">IniciaRuta</text></g><g id="ConducePorRuta"><rect fill="#F1F1F1" height="50" rx="12.5" ry="12.5" style="stroke:#181818;stroke-width:0.5;" width="136.7168" x="132.27" y="1029.2969"/><line style="stroke:#181818;stroke-width:0.5;" x1="132.27" x2="268.9868" y1="1055.5938" y2="1055.5938"/><text fill="#000000" font-family="sans-serif" font-size="14" lengthAdjust="spacing" textLength="116.7168" x="142.27" y="1047.292">ConducePorRuta</text></g><g id="AtiendeIncidencia"><rect fill="#F1F1F1" height="50" rx="12.5" ry="12.5" style="stroke:#181818;stroke-width:0.5;" width="145.0703" x="38.27" y="1156.2969"/><line style="stroke:#181818;stroke-width:0.5;" x1="38.27" x2="183.3403" y1="1182.5938" y2="1182.5938"/><text fill="#000000" font-family="sans-serif" font-size="14" lengthAdjust="spacing" textLength="125.0703" x="48.27" y="1174.292">AtiendeIncidencia</text></g><g id="CompletaRuta"><rect fill="#F1F1F1" height="50" rx="12.5" ry="12.5" style="stroke:#181818;stroke-width:0.5;" width="120.1055" x="305.77" y="1156.2969"/><line style="stroke:#181818;stroke-width:0.5;" x1="305.77" x2="425.8755" y1="1182.5938" y2="1182.5938"/><text fill="#000000" font-family="sans-serif" font-size="14" lengthAdjust="spacing" textLength="100.1055" x="315.77" y="1174.292">CompletaRuta</text></g><g id="VuelveAEstacion"><rect fill="#F1F1F1" height="50" rx="12.5" ry="12.5" style="stroke:#181818;stroke-width:0.5;" width="136.6621" x="297.27" y="1283.2969"/><line style="stroke:#181818;stroke-width:0.5;" x1="297.27" x2="433.9321" y1="1309.5938" y2="1309.5938"/><text fill="#000000" font-family="sans-serif" font-size="14" lengthAdjust="spacing" textLength="116.6621" x="307.27" y="1301.292">VuelveAEstacion</text></g><g id="RealizaInspeccionFinal"><rect fill="#F1F1F1" height="50" rx="12.5" ry="12.5" style="stroke:#181818;stroke-width:0.5;" width="178.4297" x="276.77" y="1410.2969"/><line style="stroke:#181818;stroke-width:0.5;" x1="276.77" x2="455.1997" y1="1436.5938" y2="1436.5938"/><text fill="#000000" font-family="sans-serif" font-size="14" lengthAdjust="spacing" textLength="158.4297" x="286.77" y="1428.292">RealizaInspeccionFinal</text></g><ellipse cx="365.77" cy="1548.2969" fill="none" rx="11" ry="11" style="stroke:#222222;stroke-width:1.0;"/><ellipse cx="365.77" cy="1548.2969" fill="#222222" rx="6" ry="6" style="stroke:#222222;stroke-width:1.0;"/><!--link *start* to SeReportaAlTrabajo--><g id="link_*start*_SeReportaAlTrabajo"><path d="M200.77,63.2969 C200.77,79.9269 200.77,109.9569 200.77,134.1669 " fill="none" id="*start*-to-SeReportaAlTrabajo" style="stroke:#181818;stroke-width:1.0;"/><polygon fill="#181818" points="200.77,140.1669,204.77,131.1669,200.77,135.1669,196.77,131.1669,200.77,140.1669" style="stroke:#181818;stroke-width:1.0;"/><text fill="#000000" font-family="sans-serif" font-size="13" lengthAdjust="spacing" textLength="73.417" x="201.77" y="106.3638">Inicia turno</text></g><!--link SeReportaAlTrabajo to RealizaInspeccionInicial--><g id="link_SeReportaAlTrabajo_RealizaInspeccionInicial"><path d="M200.77,190.3969 C200.77,212.5369 200.77,239.1569 200.77,261.2669 " fill="none" id="SeReportaAlTrabajo-to-RealizaInspeccionInicial" style="stroke:#181818;stroke-width:1.0;"/><polygon fill="#181818" points="200.77,267.2669,204.77,258.2669,200.77,262.2669,196.77,258.2669,200.77,267.2669" style="stroke:#181818;stroke-width:1.0;"/><text fill="#000000" font-family="sans-serif" font-size="13" lengthAdjust="spacing" textLength="212.8306" x="201.77" y="233.3638">Verifica condiciones del veh&#237;culo</text></g><!--link RealizaInspeccionInicial to EsperaAsignacion--><g id="link_RealizaInspeccionInicial_EsperaAsignacion"><path d="M200.77,317.3969 C200.77,339.5369 200.77,366.1569 200.77,388.2669 " fill="none" id="RealizaInspeccionInicial-to-EsperaAsignacion" style="stroke:#181818;stroke-width:1.0;"/><polygon fill="#181818" points="200.77,394.2669,204.77,385.2669,200.77,389.2669,196.77,385.2669,200.77,394.2669" style="stroke:#181818;stroke-width:1.0;"/><text fill="#000000" font-family="sans-serif" font-size="13" lengthAdjust="spacing" textLength="108.4053" x="201.77" y="360.3638">Turno disponible</text></g><!--link EsperaAsignacion to RecibeRutaAsignada--><g id="link_EsperaAsignacion_RecibeRutaAsignada"><path d="M200.77,444.3969 C200.77,466.5369 200.77,493.1569 200.77,515.2669 " fill="none" id="EsperaAsignacion-to-RecibeRutaAsignada" style="stroke:#181818;stroke-width:1.0;"/><polygon fill="#181818" points="200.77,521.2669,204.77,512.2669,200.77,516.2669,196.77,512.2669,200.77,521.2669" style="stroke:#181818;stroke-width:1.0;"/><text fill="#000000" font-family="sans-serif" font-size="13" lengthAdjust="spacing" textLength="189.9346" x="201.77" y="487.3638">Ruta asignada por el sistema</text></g><!--link RecibeRutaAsignada to SubeAlBus--><g id="link_RecibeRutaAsignada_SubeAlBus"><path d="M200.77,571.3969 C200.77,593.5369 200.77,620.1569 200.77,642.2669 " fill="none" id="RecibeRutaAsignada-to-SubeAlBus" style="stroke:#181818;stroke-width:1.0;"/><polygon fill="#181818" points="200.77,648.2669,204.77,639.2669,200.77,643.2669,196.77,639.2669,200.77,648.2669" style="stroke:#181818;stroke-width:1.0;"/><text fill="#000000" font-family="sans-serif" font-size="13" lengthAdjust="spacing" textLength="121.0308" x="201.77" y="614.3638">Aborda el veh&#237;culo</text></g><!--link SubeAlBus to VerificaBus--><g id="link_SubeAlBus_VerificaBus"><path d="M200.77,698.3969 C200.77,720.5369 200.77,747.1569 200.77,769.2669 " fill="none" id="SubeAlBus-to-VerificaBus" style="stroke:#181818;stroke-width:1.0;"/><polygon fill="#181818" points="200.77,775.2669,204.77,766.2669,200.77,770.2669,196.77,766.2669,200.77,775.2669" style="stroke:#181818;stroke-width:1.0;"/><text fill="#000000" font-family="sans-serif" font-size="13" lengthAdjust="spacing" textLength="229.5947" x="201.77" y="741.3638">Comprueba condiciones operativas</text></g><!--link VerificaBus to IniciaRuta--><g id="link_VerificaBus_IniciaRuta"><path d="M200.77,825.3969 C200.77,847.5369 200.77,874.1569 200.77,896.2669 " fill="none" id="VerificaBus-to-IniciaRuta" style="stroke:#181818;stroke-width:1.0;"/><polygon fill="#181818" points="200.77,902.2669,204.77,893.2669,200.77,897.2669,196.77,893.2669,200.77,902.2669" style="stroke:#181818;stroke-width:1.0;"/><text fill="#000000" font-family="sans-serif" font-size="13" lengthAdjust="spacing" textLength="223.0059" x="201.77" y="868.3638">Se prepara para iniciar el trayecto</text></g><!--link IniciaRuta to ConducePorRuta--><g id="link_IniciaRuta_ConducePorRuta"><path d="M200.77,952.3969 C200.77,974.5369 200.77,1001.1569 200.77,1023.2669 " fill="none" id="IniciaRuta-to-ConducePorRuta" style="stroke:#181818;stroke-width:1.0;"/><polygon fill="#181818" points="200.77,1029.2669,204.77,1020.2669,200.77,1024.2669,196.77,1020.2669,200.77,1029.2669" style="stroke:#181818;stroke-width:1.0;"/><text fill="#000000" font-family="sans-serif" font-size="13" lengthAdjust="spacing" textLength="194.1748" x="201.77" y="995.3638">Realiza recorrido programado</text></g><!--link ConducePorRuta to AtiendeIncidencia--><g id="link_ConducePorRuta_AtiendeIncidencia"><path d="M131.89,1067.0769 C86.71,1076.3669 33.54,1090.8269 19.77,1109.2969 C6,1127.7769 17.6815,1141.1429 40.5415,1153.3929 " fill="none" id="ConducePorRuta-to-AtiendeIncidencia" style="stroke:#181818;stroke-width:1.0;"/><polygon fill="#181818" points="45.83,1156.2269,39.7865,1148.4502,41.4229,1153.8652,36.0079,1155.5016,45.83,1156.2269" style="stroke:#181818;stroke-width:1.0;"/><text fill="#000000" font-family="sans-serif" font-size="13" lengthAdjust="spacing" textLength="136.6206" x="20.77" y="1122.3638">Surge una incidencia</text></g><!--link AtiendeIncidencia to ConducePorRuta--><g id="link_AtiendeIncidencia_ConducePorRuta"><path d="M136.05,1156.1869 C144.74,1147.2369 154.18,1136.7169 161.77,1126.2969 C172.46,1111.6369 179.5876,1099.0789 186.6976,1084.9189 " fill="none" id="AtiendeIncidencia-to-ConducePorRuta" style="stroke:#181818;stroke-width:1.0;"/><polygon fill="#181818" points="189.39,1079.5569,181.7768,1085.805,187.1464,1084.0252,188.9261,1089.3948,189.39,1079.5569" style="stroke:#181818;stroke-width:1.0;"/><text fill="#000000" font-family="sans-serif" font-size="13" lengthAdjust="spacing" textLength="123.208" x="174.77" y="1122.3638">Incidencia resuelta</text></g><!--link ConducePorRuta to CompletaRuta--><g id="link_ConducePorRuta_CompletaRuta"><path d="M258.37,1079.3269 C274.84,1087.5769 292.25,1097.6869 306.77,1109.2969 C323.42,1122.6069 335.1646,1136.3991 345.9946,1151.2491 " fill="none" id="ConducePorRuta-to-CompletaRuta" style="stroke:#181818;stroke-width:1.0;"/><polygon fill="#181818" points="349.53,1156.0969,347.4587,1146.4683,346.5838,1152.0571,340.995,1151.1822,349.53,1156.0969" style="stroke:#181818;stroke-width:1.0;"/><text fill="#000000" font-family="sans-serif" font-size="13" lengthAdjust="spacing" textLength="128.1338" x="324.77" y="1122.3638">Finaliza el recorrido</text></g><!--link CompletaRuta to VuelveAEstacion--><g id="link_CompletaRuta_VuelveAEstacion"><path d="M365.77,1206.3969 C365.77,1228.5369 365.77,1255.1569 365.77,1277.2669 " fill="none" id="CompletaRuta-to-VuelveAEstacion" style="stroke:#181818;stroke-width:1.0;"/><polygon fill="#181818" points="365.77,1283.2669,369.77,1274.2669,365.77,1278.2669,361.77,1274.2669,365.77,1283.2669" style="stroke:#181818;stroke-width:1.0;"/><text fill="#000000" font-family="sans-serif" font-size="13" lengthAdjust="spacing" textLength="188.9316" x="366.77" y="1249.3638">Retorna el veh&#237;culo a la base</text></g><!--link VuelveAEstacion to RealizaInspeccionFinal--><g id="link_VuelveAEstacion_RealizaInspeccionFinal"><path d="M365.77,1333.3969 C365.77,1355.5369 365.77,1382.1569 365.77,1404.2669 " fill="none" id="VuelveAEstacion-to-RealizaInspeccionFinal" style="stroke:#181818;stroke-width:1.0;"/><polygon fill="#181818" points="365.77,1410.2669,369.77,1401.2669,365.77,1405.2669,361.77,1401.2669,365.77,1410.2669" style="stroke:#181818;stroke-width:1.0;"/><text fill="#000000" font-family="sans-serif" font-size="13" lengthAdjust="spacing" textLength="182.438" x="366.77" y="1376.3638">Reporta estado del veh&#237;culo</text></g><!--link RealizaInspeccionFinal to *end*--><g id="link_RealizaInspeccionFinal_*end*"><path d="M365.77,1460.3869 C365.77,1484.3569 365.77,1513.9969 365.77,1531.2369 " fill="none" id="RealizaInspeccionFinal-to-*end*" style="stroke:#181818;stroke-width:1.0;"/><polygon fill="#181818" points="365.77,1537.2369,369.77,1528.2369,365.77,1532.2369,361.77,1528.2369,365.77,1537.2369" style="stroke:#181818;stroke-width:1.0;"/><text fill="#000000" font-family="sans-serif" font-size="13" lengthAdjust="spacing" textLength="88.3149" x="366.77" y="1503.3638">Finaliza turno</text></g><!--SRC=[XLDBRXin3Dth55mNy0Mo233D1_2kS8DiWYmu4kEmaAK19Hb8xfHJv68XDNPh9nDq8q3YUu-F7rMkaU2QSIkuGmW4DwLYo0LMS9LJQBvcSUxXnoEiLfVmcpOqPQaun3l14Vzak81rOiy8jKdARW5Xn0rXv5TSfpAHzvpJJ8fAloVX9_O8NlEnnQYeaGXxUdv_yorczotRf6_qKN0el4reCPMyCoiGk4mvyHZ9VS7CdZoFj6dr40YeLBi27kzQ2QYJmgNI3frReFIsj966-BCL5HZ6BFfyvlzVtD37WcVyLTvDqcWyhp-RtyfxBEuKRlIvzkxpGWS2az24ebxju1xifglW2-dud3jXcC0yL_gLvI1oQ2y8-Ip28QjcxWiHilk4De6XCgL0w-GvKBBPgv4cMuAMpCBnsNq5BkO_YGkLHh7YKbhhLAHwBFsMqsnRQ_thtBapL6-t2kvfiBq-hCU6TAdJ-Om08IACMCXz9YpkRy_UjVgs0_Llyx-zdLacQ3_gf8R-UJu0]--></g></svg>