<svg xmlns="http://www.w3.org/2000/svg" xmlns:xlink="http://www.w3.org/1999/xlink" contentStyleType="text/css" height="811px" preserveAspectRatio="none" style="width:278px;height:811px;background:#FFFFFF;" version="1.1" viewBox="0 0 278 811" width="278px" zoomAndPan="magnify"><title>Diagrama de Estados - Vehiculo</title><defs/><g><text fill="#000000" font-family="sans-serif" font-size="14" font-weight="bold" lengthAdjust="spacing" textLength="250.8857" x="10" y="22.9951">Diagrama de Estados - Vehiculo</text><ellipse cx="163.1963" cy="53.2969" fill="#222222" rx="10" ry="10" style="stroke:#222222;stroke-width:1.0;"/><g id="SaleDeLaEstacion"><rect fill="#F1F1F1" height="50" rx="12.5" ry="12.5" style="stroke:#181818;stroke-width:0.5;" width="144.9746" x="90.6963" y="123.2969"/><line style="stroke:#181818;stroke-width:0.5;" x1="90.6963" x2="235.6709" y1="149.5938" y2="149.5938"/><text fill="#000000" font-family="sans-serif" font-size="14" lengthAdjust="spacing" textLength="124.9746" x="100.6963" y="141.292">SaleDeLaEstacion</text></g><g id="VeEnDireccionParada"><rect fill="#F1F1F1" height="50" rx="12.5" ry="12.5" style="stroke:#181818;stroke-width:0.5;" width="170.4932" x="78.1963" y="233.2969"/><line style="stroke:#181818;stroke-width:0.5;" x1="78.1963" x2="248.6895" y1="259.5938" y2="259.5938"/><text fill="#000000" font-family="sans-serif" font-size="14" lengthAdjust="spacing" textLength="150.4932" x="88.1963" y="251.292">VeEnDireccionParada</text></g><g id="Para"><rect fill="#F1F1F1" height="50" rx="12.5" ry="12.5" style="stroke:#181818;stroke-width:0.5;" width="51.3564" x="98.6963" y="343.2969"/><line style="stroke:#181818;stroke-width:0.5;" x1="98.6963" x2="150.0527" y1="369.5938" y2="369.5938"/><text fill="#000000" font-family="sans-serif" font-size="14" lengthAdjust="spacing" textLength="31.3564" x="108.6963" y="361.292">Para</text></g><g id="RecibePasajeros"><rect fill="#F1F1F1" height="50" rx="12.5" ry="12.5" style="stroke:#181818;stroke-width:0.5;" width="134.4404" x="36.1963" y="453.2969"/><line style="stroke:#181818;stroke-width:0.5;" x1="36.1963" x2="170.6367" y1="479.5938" y2="479.5938"/><text fill="#000000" font-family="sans-serif" font-size="14" lengthAdjust="spacing" textLength="114.4404" x="46.1963" y="471.292">RecibePasajeros</text></g><g id="SaleDeLaParada"><rect fill="#F1F1F1" height="50" rx="12.5" ry="12.5" style="stroke:#181818;stroke-width:0.5;" width="134.5635" x="95.6963" y="563.2969"/><line style="stroke:#181818;stroke-width:0.5;" x1="95.6963" x2="230.2598" y1="589.5938" y2="589.5938"/><text fill="#000000" font-family="sans-serif" font-size="14" lengthAdjust="spacing" textLength="114.5635" x="105.6963" y="581.292">SaleDeLaParada</text></g><g id="VuelveAEstacion"><rect fill="#F1F1F1" height="50" rx="12.5" ry="12.5" style="stroke:#181818;stroke-width:0.5;" width="136.6621" x="94.6963" y="673.2969"/><line style="stroke:#181818;stroke-width:0.5;" x1="94.6963" x2="231.3584" y1="699.5938" y2="699.5938"/><text fill="#000000" font-family="sans-serif" font-size="14" lengthAdjust="spacing" textLength="116.6621" x="104.6963" y="691.292">VuelveAEstacion</text></g><ellipse cx="163.1963" cy="794.2969" fill="none" rx="11" ry="11" style="stroke:#222222;stroke-width:1.0;"/><ellipse cx="163.1963" cy="794.2969" fill="#222222" rx="6" ry="6" style="stroke:#222222;stroke-width:1.0;"/><!--link *start* to SaleDeLaEstacion--><g id="link_*start*_SaleDeLaEstacion"><path d="M163.1963,63.5569 C163.1963,77.3369 163.1963,97.7169 163.1963,117.2069 " fill="none" id="*start*-to-SaleDeLaEstacion" style="stroke:#181818;stroke-width:1.0;"/><polygon fill="#181818" points="163.1963,123.2069,167.1963,114.2069,163.1963,118.2069,159.1963,114.2069,163.1963,123.2069" style="stroke:#181818;stroke-width:1.0;"/></g><!--link SaleDeLaEstacion to VeEnDireccionParada--><g id="link_SaleDeLaEstacion_VeEnDireccionParada"><path d="M163.1963,173.5369 C163.1963,191.3169 163.1963,209.3769 163.1963,227.1369 " fill="none" id="SaleDeLaEstacion-to-VeEnDireccionParada" style="stroke:#181818;stroke-width:1.0;"/><polygon fill="#181818" points="163.1963,233.1369,167.1963,224.1369,163.1963,228.1369,159.1963,224.1369,163.1963,233.1369" style="stroke:#181818;stroke-width:1.0;"/></g><!--link VeEnDireccionParada to Para--><g id="link_VeEnDireccionParada_Para"><path d="M154.4463,283.5369 C148.0163,301.3169 141.376,319.7342 134.956,337.4942 " fill="none" id="VeEnDireccionParada-to-Para" style="stroke:#181818;stroke-width:1.0;"/><polygon fill="#181818" points="132.9163,343.1369,139.7377,336.0327,134.6161,338.4347,132.2141,333.3131,132.9163,343.1369" style="stroke:#181818;stroke-width:1.0;"/></g><!--link Para to RecibePasajeros--><g id="link_Para_RecibePasajeros"><path d="M119.4863,393.5369 C116.0263,411.3169 112.4904,429.487 109.0404,447.247 " fill="none" id="Para-to-RecibePasajeros" style="stroke:#181818;stroke-width:1.0;"/><polygon fill="#181818" points="107.8963,453.1369,113.5391,445.0648,108.8497,448.2286,105.6859,443.5393,107.8963,453.1369" style="stroke:#181818;stroke-width:1.0;"/></g><!--link RecibePasajeros to SaleDeLaParada--><g id="link_RecibePasajeros_SaleDeLaParada"><path d="M116.6663,503.5369 C126.5463,521.3169 136.9917,540.1323 146.8617,557.8923 " fill="none" id="RecibePasajeros-to-SaleDeLaParada" style="stroke:#181818;stroke-width:1.0;"/><polygon fill="#181818" points="149.7763,563.1369,148.9007,553.327,147.3474,558.7664,141.908,557.2132,149.7763,563.1369" style="stroke:#181818;stroke-width:1.0;"/></g><!--link SaleDeLaParada to VeEnDireccionParada--><g id="link_SaleDeLaParada_VeEnDireccionParada"><path d="M172.4363,563.0869 C178.2463,546.5269 185.1963,523.9269 188.1963,503.2969 C199.8563,423.2369 181.8659,333.4341 171.0759,289.4541 " fill="none" id="SaleDeLaParada-to-VeEnDireccionParada" style="stroke:#181818;stroke-width:1.0;"/><polygon fill="#181818" points="169.6463,283.6269,167.9059,293.3208,170.8377,288.4829,175.6755,291.4146,169.6463,283.6269" style="stroke:#181818;stroke-width:1.0;"/></g><!--link SaleDeLaParada to VuelveAEstacion--><g id="link_SaleDeLaParada_VuelveAEstacion"><path d="M163.1963,613.5369 C163.1963,631.3169 163.1963,649.3769 163.1963,667.1369 " fill="none" id="SaleDeLaParada-to-VuelveAEstacion" style="stroke:#181818;stroke-width:1.0;"/><polygon fill="#181818" points="163.1963,673.1369,167.1963,664.1369,163.1963,668.1369,159.1963,664.1369,163.1963,673.1369" style="stroke:#181818;stroke-width:1.0;"/></g><!--link VuelveAEstacion to *end*--><g id="link_VuelveAEstacion_*end*"><path d="M163.1963,723.5069 C163.1963,742.8669 163.1963,763.0469 163.1963,777.1969 " fill="none" id="VuelveAEstacion-to-*end*" style="stroke:#181818;stroke-width:1.0;"/><polygon fill="#181818" points="163.1963,783.1969,167.1963,774.1969,163.1963,778.1969,159.1963,774.1969,163.1963,783.1969" style="stroke:#181818;stroke-width:1.0;"/></g><!--SRC=[TP2n2W8n38RtF4LceQyW2BtDuL2uHHnY-wELUeMsTyzlsq6bd5EJBn_XJxFB7goTtAEyX2ruI5biIAnumiEPnGUYo-xAIktvB1uQHwcESM4cwadJ9WopTX6cab6YM66YBThqMfTvUsf_Wd4tZ9BaYLYI4FNaDyjdVmV-1DdK5lWLX-zL7MXI-OCt]--></g></svg>