<svg xmlns="http://www.w3.org/2000/svg" xmlns:xlink="http://www.w3.org/1999/xlink" contentStyleType="text/css" height="1057px" preserveAspectRatio="none" style="width:582px;height:1057px;background:#FFFFFF;" version="1.1" viewBox="0 0 582 1057" width="582px" zoomAndPan="magnify"><title>Diagrama de Estados - Pasajero</title><defs/><g><text fill="#000000" font-family="sans-serif" font-size="14" font-weight="bold" lengthAdjust="spacing" textLength="251.4121" x="158.6646" y="22.9951">Diagrama de Estados - Pasajero</text><ellipse cx="242" cy="53.2969" fill="#222222" rx="10" ry="10" style="stroke:#222222;stroke-width:1.0;"/><g id="PlanificaViaje"><rect fill="#F1F1F1" height="50" rx="12.5" ry="12.5" style="stroke:#181818;stroke-width:0.5;" width="113.3174" x="185.5" y="140.2969"/><line style="stroke:#181818;stroke-width:0.5;" x1="185.5" x2="298.8174" y1="166.5938" y2="166.5938"/><text fill="#000000" font-family="sans-serif" font-size="14" lengthAdjust="spacing" textLength="93.3174" x="195.5" y="158.292">PlanificaViaje</text></g><g id="SeDirigeALaParada"><rect fill="#F1F1F1" height="50" rx="12.5" ry="12.5" style="stroke:#181818;stroke-width:0.5;" width="154.0938" x="74" y="267.2969"/><line style="stroke:#181818;stroke-width:0.5;" x1="74" x2="228.0938" y1="293.5938" y2="293.5938"/><text fill="#000000" font-family="sans-serif" font-size="14" lengthAdjust="spacing" textLength="134.0938" x="84" y="285.292">SeDirigeALaParada</text></g><g id="EsperaEnParada"><rect fill="#F1F1F1" height="50" rx="12.5" ry="12.5" style="stroke:#181818;stroke-width:0.5;" width="134.5156" x="69.5" y="394.2969"/><line style="stroke:#181818;stroke-width:0.5;" x1="69.5" x2="204.0156" y1="420.5938" y2="420.5938"/><text fill="#000000" font-family="sans-serif" font-size="14" lengthAdjust="spacing" textLength="114.5156" x="79.5" y="412.292">EsperaEnParada</text></g><g id="SubeAlBus"><rect fill="#F1F1F1" height="50" rx="12.5" ry="12.5" style="stroke:#181818;stroke-width:0.5;" width="94.498" x="35" y="521.2969"/><line style="stroke:#181818;stroke-width:0.5;" x1="35" x2="129.498" y1="547.5938" y2="547.5938"/><text fill="#000000" font-family="sans-serif" font-size="14" lengthAdjust="spacing" textLength="74.498" x="45" y="539.292">SubeAlBus</text></g><g id="PagaTarifa"><rect fill="#F1F1F1" height="50" rx="12.5" ry="12.5" style="stroke:#181818;stroke-width:0.5;" width="94.7715" x="27.5" y="648.2969"/><line style="stroke:#181818;stroke-width:0.5;" x1="27.5" x2="122.2715" y1="674.5938" y2="674.5938"/><text fill="#000000" font-family="sans-serif" font-size="14" lengthAdjust="spacing" textLength="74.7715" x="37.5" y="666.292">PagaTarifa</text></g><g id="ViajaEnBus"><rect fill="#F1F1F1" height="50" rx="12.5" ry="12.5" style="stroke:#181818;stroke-width:0.5;" width="98.0049" x="7" y="775.2969"/><line style="stroke:#181818;stroke-width:0.5;" x1="7" x2="105.0049" y1="801.5938" y2="801.5938"/><text fill="#000000" font-family="sans-serif" font-size="14" lengthAdjust="spacing" textLength="78.0049" x="17" y="793.292">ViajaEnBus</text></g><g id="SaleEnParadaDeseada"><rect fill="#F1F1F1" height="50" rx="12.5" ry="12.5" style="stroke:#181818;stroke-width:0.5;" width="177.8555" x="104" y="902.2969"/><line style="stroke:#181818;stroke-width:0.5;" x1="104" x2="281.8555" y1="928.5938" y2="928.5938"/><text fill="#000000" font-family="sans-serif" font-size="14" lengthAdjust="spacing" textLength="157.8555" x="114" y="920.292">SaleEnParadaDeseada</text></g><ellipse cx="193" cy="1040.2969" fill="none" rx="11" ry="11" style="stroke:#222222;stroke-width:1.0;"/><ellipse cx="193" cy="1040.2969" fill="#222222" rx="6" ry="6" style="stroke:#222222;stroke-width:1.0;"/><!--link *start* to PlanificaViaje--><g id="link_*start*_PlanificaViaje"><path d="M242,63.2969 C242,79.9269 242,109.9569 242,134.1669 " fill="none" id="*start*-to-PlanificaViaje" style="stroke:#181818;stroke-width:1.0;"/><polygon fill="#181818" points="242,140.1669,246,131.1669,242,135.1669,238,131.1669,242,140.1669" style="stroke:#181818;stroke-width:1.0;"/><text fill="#000000" font-family="sans-serif" font-size="13" lengthAdjust="spacing" textLength="163.0776" x="243" y="106.3638">Selecciona ruta y horario</text></g><!--link PlanificaViaje to SeDirigeALaParada--><g id="link_PlanificaViaje_SeDirigeALaParada"><path d="M185.25,187.9469 C171.65,195.9669 158.82,206.5669 151,220.2969 C143.01,234.3269 142.3429,246.6584 144.4329,261.1384 " fill="none" id="PlanificaViaje-to-SeDirigeALaParada" style="stroke:#181818;stroke-width:1.0;"/><polygon fill="#181818" points="145.29,267.0769,147.9633,257.5978,144.5757,262.1282,140.0453,258.7406,145.29,267.0769" style="stroke:#181818;stroke-width:1.0;"/><text fill="#000000" font-family="sans-serif" font-size="13" lengthAdjust="spacing" textLength="154.1782" x="152" y="233.3638">Camina hacia la parada</text></g><!--link SeDirigeALaParada to EsperaEnParada--><g id="link_SeDirigeALaParada_EsperaEnParada"><path d="M148.3,317.3969 C145.82,339.5369 142.8388,366.1943 140.3588,388.3043 " fill="none" id="SeDirigeALaParada-to-EsperaEnParada" style="stroke:#181818;stroke-width:1.0;"/><polygon fill="#181818" points="139.69,394.2669,144.6683,385.7688,140.2473,389.298,136.7181,384.8771,139.69,394.2669" style="stroke:#181818;stroke-width:1.0;"/><text fill="#000000" font-family="sans-serif" font-size="13" lengthAdjust="spacing" textLength="112.7598" x="146" y="360.3638">Llega a la parada</text></g><!--link EsperaEnParada to SubeAlBus--><g id="link_EsperaEnParada_SubeAlBus"><path d="M126.4,444.3969 C116.66,466.5369 104.7168,493.6651 94.9868,515.7751 " fill="none" id="EsperaEnParada-to-SubeAlBus" style="stroke:#181818;stroke-width:1.0;"/><polygon fill="#181818" points="92.57,521.2669,99.8563,514.6404,94.584,516.6904,92.534,511.4181,92.57,521.2669" style="stroke:#181818;stroke-width:1.0;"/><text fill="#000000" font-family="sans-serif" font-size="13" lengthAdjust="spacing" textLength="139.9023" x="114" y="487.3638">Llega el bus y aborda</text></g><!--link SubeAlBus to PagaTarifa--><g id="link_SubeAlBus_PagaTarifa"><path d="M79.43,571.4669 C78.53,580.7769 77.59,591.5269 77,601.2969 C76.06,616.9269 75.6777,628.528 75.4077,642.288 " fill="none" id="SubeAlBus-to-PagaTarifa" style="stroke:#181818;stroke-width:1.0;"/><polygon fill="#181818" points="75.29,648.2869,79.4658,639.3671,75.3881,643.2878,71.4673,639.2101,75.29,648.2869" style="stroke:#181818;stroke-width:1.0;"/><text fill="#000000" font-family="sans-serif" font-size="13" lengthAdjust="spacing" textLength="228.4585" x="78" y="614.3638">Valida la tarjeta o paga en efectivo</text></g><!--link PagaTarifa to ViajaEnBus--><g id="link_PagaTarifa_ViajaEnBus"><path d="M71.34,698.3969 C67.97,720.5369 63.9115,747.225 60.5515,769.335 " fill="none" id="PagaTarifa-to-ViajaEnBus" style="stroke:#181818;stroke-width:1.0;"/><polygon fill="#181818" points="59.65,775.2669,64.9568,766.97,60.4012,770.3236,57.0476,765.7681,59.65,775.2669" style="stroke:#181818;stroke-width:1.0;"/><text fill="#000000" font-family="sans-serif" font-size="13" lengthAdjust="spacing" textLength="227.4238" x="68" y="741.3638">Busca asiento o espacio disponible</text></g><!--link ViajaEnBus to SaleEnParadaDeseada--><g id="link_ViajaEnBus_SaleEnParadaDeseada"><path d="M47.18,825.3469 C43.38,840.1369 41.67,858.7669 51,872.2969 C63.58,890.5369 77.595,900.4498 98.275,908.4598 " fill="none" id="ViajaEnBus-to-SaleEnParadaDeseada" style="stroke:#181818;stroke-width:1.0;"/><polygon fill="#181818" points="103.87,910.6269,96.9223,903.6462,99.2075,908.821,94.0328,911.1062,103.87,910.6269" style="stroke:#181818;stroke-width:1.0;"/><text fill="#000000" font-family="sans-serif" font-size="13" lengthAdjust="spacing" textLength="254.3252" x="52" y="868.3638">Llega a la parada deseada y desciende</text></g><!--link SaleEnParadaDeseada to *end*--><g id="link_SaleEnParadaDeseada_*end*"><path d="M193,952.3869 C193,976.3569 193,1005.9969 193,1023.2369 " fill="none" id="SaleEnParadaDeseada-to-*end*" style="stroke:#181818;stroke-width:1.0;"/><polygon fill="#181818" points="193,1029.2369,197,1020.2369,193,1024.2369,189,1020.2369,193,1029.2369" style="stroke:#181818;stroke-width:1.0;"/><text fill="#000000" font-family="sans-serif" font-size="13" lengthAdjust="spacing" textLength="100.0645" x="194" y="995.3638">Finaliza el viaje</text></g><!--link SaleEnParadaDeseada to PlanificaViaje--><g id="link_SaleEnParadaDeseada_PlanificaViaje"><path d="M270.43,902.2169 C285.49,894.6169 299.99,884.8169 311,872.2969 C332.81,847.4869 333,834.3369 333,801.2969 C333,291.2969 333,291.2969 333,291.2969 C333,258.2569 329.75,247.4969 311,220.2969 C303.14,208.8969 296.9215,202.4246 286.0215,194.1146 " fill="none" id="SaleEnParadaDeseada-to-PlanificaViaje" style="stroke:#181818;stroke-width:1.0;"/><polygon fill="#181818" points="281.25,190.4769,285.9821,199.1144,285.2262,193.5083,290.8324,192.7525,281.25,190.4769" style="stroke:#181818;stroke-width:1.0;"/><text fill="#000000" font-family="sans-serif" font-size="13" lengthAdjust="spacing" textLength="240.7412" x="334" y="550.8638">Inicia planificaci&#243;n de un nuevo viaje</text></g><!--SRC=[TL9BQiCm4Dtx5BCk-09P5DB6XK8MWPHiIXVFyjYPe4X6aWtfjNg4NgmZXtn8cesnDUypJyz9acLQ2Bg0FQXXgc92uoELj4B4ZeEdelXy-gAoVAQLXPDM33QY8vhHcYqR8zw1mf101zhwW22-k85czfeN4gJZ-H8h13HGWLViHSbR605PK3yDYdje5gXYpm6LExENbZlGDV46CjaEDS_jon3F1BPKw-U1KFkWfE82cLAYmuU6QBF51bQQoI4Xx5WpUlNA8ewuPPDarB0NHXR8aNM7ewK-ZUuOXLtoIkROQrXFZSJUEwaj5rVuQM5OFYLOSEG7MRMju-oGtupgDwnH_Y5dqLpXZDxqigryJrSmvc8Uuk-gVdUIE-fFvqP-Vrp-OmP7Rk3H7mN_0000]--></g></svg>