<svg xmlns="http://www.w3.org/2000/svg" xmlns:xlink="http://www.w3.org/1999/xlink" contentStyleType="text/css" height="701px" preserveAspectRatio="none" style="width:292px;height:701px;background:#FFFFFF;" version="1.1" viewBox="0 0 292 701" width="292px" zoomAndPan="magnify"><title>Diagrama de Estados - Conductor</title><defs/><g><text fill="#000000" font-family="sans-serif" font-size="14" font-weight="bold" lengthAdjust="spacing" textLength="264.4688" x="10" y="22.9951">Diagrama de Estados - Conductor</text><ellipse cx="149.376" cy="53.2969" fill="#222222" rx="10" ry="10" style="stroke:#222222;stroke-width:1.0;"/><g id="SubeAlBus"><rect fill="#F1F1F1" height="50" rx="12.5" ry="12.5" style="stroke:#181818;stroke-width:0.5;" width="94.498" x="102.376" y="123.2969"/><line style="stroke:#181818;stroke-width:0.5;" x1="102.376" x2="196.874" y1="149.5938" y2="149.5938"/><text fill="#000000" font-family="sans-serif" font-size="14" lengthAdjust="spacing" textLength="74.498" x="112.376" y="141.292">SubeAlBus</text></g><g id="VerificaBus"><rect fill="#F1F1F1" height="50" rx="12.5" ry="12.5" style="stroke:#181818;stroke-width:0.5;" width="98.7021" x="99.876" y="233.2969"/><line style="stroke:#181818;stroke-width:0.5;" x1="99.876" x2="198.5781" y1="259.5938" y2="259.5938"/><text fill="#000000" font-family="sans-serif" font-size="14" lengthAdjust="spacing" textLength="78.7021" x="109.876" y="251.292">VerificaBus</text></g><g id="AsignaRuta"><rect fill="#F1F1F1" height="50" rx="12.5" ry="12.5" style="stroke:#181818;stroke-width:0.5;" width="99.7686" x="99.376" y="343.2969"/><line style="stroke:#181818;stroke-width:0.5;" x1="99.376" x2="199.1445" y1="369.5938" y2="369.5938"/><text fill="#000000" font-family="sans-serif" font-size="14" lengthAdjust="spacing" textLength="79.7686" x="109.376" y="361.292">AsignaRuta</text></g><g id="ConducePorRuta"><rect fill="#F1F1F1" height="50" rx="12.5" ry="12.5" style="stroke:#181818;stroke-width:0.5;" width="136.7168" x="80.876" y="453.2969"/><line style="stroke:#181818;stroke-width:0.5;" x1="80.876" x2="217.5928" y1="479.5938" y2="479.5938"/><text fill="#000000" font-family="sans-serif" font-size="14" lengthAdjust="spacing" textLength="116.7168" x="90.876" y="471.292">ConducePorRuta</text></g><g id="VuelveAEstacion"><rect fill="#F1F1F1" height="50" rx="12.5" ry="12.5" style="stroke:#181818;stroke-width:0.5;" width="136.6621" x="80.876" y="563.2969"/><line style="stroke:#181818;stroke-width:0.5;" x1="80.876" x2="217.5381" y1="589.5938" y2="589.5938"/><text fill="#000000" font-family="sans-serif" font-size="14" lengthAdjust="spacing" textLength="116.6621" x="90.876" y="581.292">VuelveAEstacion</text></g><ellipse cx="149.376" cy="684.2969" fill="none" rx="11" ry="11" style="stroke:#222222;stroke-width:1.0;"/><ellipse cx="149.376" cy="684.2969" fill="#222222" rx="6" ry="6" style="stroke:#222222;stroke-width:1.0;"/><!--link *start* to SubeAlBus--><g id="link_*start*_SubeAlBus"><path d="M149.376,63.5569 C149.376,77.3369 149.376,97.7169 149.376,117.2069 " fill="none" id="*start*-to-SubeAlBus" style="stroke:#181818;stroke-width:1.0;"/><polygon fill="#181818" points="149.376,123.2069,153.376,114.2069,149.376,118.2069,145.376,114.2069,149.376,123.2069" style="stroke:#181818;stroke-width:1.0;"/></g><!--link SubeAlBus to VerificaBus--><g id="link_SubeAlBus_VerificaBus"><path d="M149.376,173.5369 C149.376,191.3169 149.376,209.3769 149.376,227.1369 " fill="none" id="SubeAlBus-to-VerificaBus" style="stroke:#181818;stroke-width:1.0;"/><polygon fill="#181818" points="149.376,233.1369,153.376,224.1369,149.376,228.1369,145.376,224.1369,149.376,233.1369" style="stroke:#181818;stroke-width:1.0;"/></g><!--link VerificaBus to AsignaRuta--><g id="link_VerificaBus_AsignaRuta"><path d="M149.376,283.5369 C149.376,301.3169 149.376,319.3769 149.376,337.1369 " fill="none" id="VerificaBus-to-AsignaRuta" style="stroke:#181818;stroke-width:1.0;"/><polygon fill="#181818" points="149.376,343.1369,153.376,334.1369,149.376,338.1369,145.376,334.1369,149.376,343.1369" style="stroke:#181818;stroke-width:1.0;"/></g><!--link AsignaRuta to ConducePorRuta--><g id="link_AsignaRuta_ConducePorRuta"><path d="M149.376,393.5369 C149.376,411.3169 149.376,429.3769 149.376,447.1369 " fill="none" id="AsignaRuta-to-ConducePorRuta" style="stroke:#181818;stroke-width:1.0;"/><polygon fill="#181818" points="149.376,453.1369,153.376,444.1369,149.376,448.1369,145.376,444.1369,149.376,453.1369" style="stroke:#181818;stroke-width:1.0;"/></g><!--link ConducePorRuta to VuelveAEstacion--><g id="link_ConducePorRuta_VuelveAEstacion"><path d="M149.376,503.5369 C149.376,521.3169 149.376,539.3769 149.376,557.1369 " fill="none" id="ConducePorRuta-to-VuelveAEstacion" style="stroke:#181818;stroke-width:1.0;"/><polygon fill="#181818" points="149.376,563.1369,153.376,554.1369,149.376,558.1369,145.376,554.1369,149.376,563.1369" style="stroke:#181818;stroke-width:1.0;"/></g><!--link VuelveAEstacion to *end*--><g id="link_VuelveAEstacion_*end*"><path d="M149.376,613.5069 C149.376,632.8669 149.376,653.0469 149.376,667.1969 " fill="none" id="VuelveAEstacion-to-*end*" style="stroke:#181818;stroke-width:1.0;"/><polygon fill="#181818" points="149.376,673.1969,153.376,664.1969,149.376,668.1969,145.376,664.1969,149.376,673.1969" style="stroke:#181818;stroke-width:1.0;"/></g><!--SRC=[NOxD2W8n38JlUOgSXRw2K7_kek15F6JRk0Hg2stZyxlP5Ldsbfblo4oNdXXFGcEbDs5aFBTEiJHqU2mvQkYbmcFtHEVsUDE1VJfe0_YVCxXpbPS4CWsmLaPzap7JLJjDS2MCBILyAVN7DyRyNJbzsDko82LRmyQnr3Jo2m00]--></g></svg>