<svg xmlns="http://www.w3.org/2000/svg" xmlns:xlink="http://www.w3.org/1999/xlink" contentStyleType="text/css" height="543px" preserveAspectRatio="none" style="width:1031px;height:543px;background:#FFFFFF;" version="1.1" viewBox="0 0 1031 543" width="1031px" zoomAndPan="magnify"><defs/><g><g id="elem_Servicio"><rect fill="#F1F1F1" height="44.5938" style="stroke:#181818;stroke-width:0.5;" width="308.5498" x="325" y="7"/><text fill="#000000" font-family="sans-serif" font-size="14" lengthAdjust="spacing" textLength="55.583" x="451.4834" y="21.9951">Servicio</text><line style="stroke:#181818;stroke-width:0.5;" x1="326" x2="632.5498" y1="27.2969" y2="27.2969"/><text fill="#000000" font-family="sans-serif" font-size="14" lengthAdjust="spacing" textLength="296.5498" x="331" y="44.292">nombre = "Transporte Urbano Santander"</text></g><g id="elem_SistemaDePago"><rect fill="#F1F1F1" height="44.5938" style="stroke:#181818;stroke-width:0.5;" width="181.4355" x="7" y="120"/><text fill="#000000" font-family="sans-serif" font-size="14" lengthAdjust="spacing" textLength="110.2568" x="42.5894" y="134.9951">SistemaDePago</text><line style="stroke:#181818;stroke-width:0.5;" x1="8" x2="187.4355" y1="140.2969" y2="140.2969"/><text fill="#000000" font-family="sans-serif" font-size="14" lengthAdjust="spacing" textLength="169.4355" x="13" y="157.292">nombre = "Tarjeta TUS"</text></g><g id="elem_Tarifa"><rect fill="#F1F1F1" height="60.8906" style="stroke:#181818;stroke-width:0.5;" width="167.9756" x="114.5" y="233"/><text fill="#000000" font-family="sans-serif" font-size="14" lengthAdjust="spacing" textLength="40.2842" x="178.3457" y="247.9951">Tarifa</text><line style="stroke:#181818;stroke-width:0.5;" x1="115.5" x2="281.4756" y1="253.2969" y2="253.2969"/><text fill="#000000" font-family="sans-serif" font-size="14" lengthAdjust="spacing" textLength="155.9756" x="120.5" y="270.292">tipo = "Tarifa Normal"</text><text fill="#000000" font-family="sans-serif" font-size="14" lengthAdjust="spacing" textLength="108.0898" x="120.5" y="286.5889">precio = "0.6&#8364;"</text></g><g id="elem_Pasajero"><rect fill="#F1F1F1" height="44.5938" style="stroke:#181818;stroke-width:0.5;" width="150.1543" x="223.5" y="120"/><text fill="#000000" font-family="sans-serif" font-size="14" lengthAdjust="spacing" textLength="59.7188" x="268.7178" y="134.9951">Pasajero</text><line style="stroke:#181818;stroke-width:0.5;" x1="224.5" x2="372.6543" y1="140.2969" y2="140.2969"/><text fill="#000000" font-family="sans-serif" font-size="14" lengthAdjust="spacing" textLength="138.1543" x="229.5" y="157.292">nombre = "Brenda"</text></g><g id="elem_Flota"><rect fill="#F1F1F1" height="44.5938" style="stroke:#181818;stroke-width:0.5;" width="141.5205" x="408.5" y="120"/><text fill="#000000" font-family="sans-serif" font-size="14" lengthAdjust="spacing" textLength="34.5762" x="461.9722" y="134.9951">Flota</text><line style="stroke:#181818;stroke-width:0.5;" x1="409.5" x2="549.0205" y1="140.2969" y2="140.2969"/><text fill="#000000" font-family="sans-serif" font-size="14" lengthAdjust="spacing" textLength="129.5205" x="414.5" y="157.292">nombre = "Buses"</text></g><g id="elem_Conductor"><rect fill="#F1F1F1" height="44.5938" style="stroke:#181818;stroke-width:0.5;" width="149.8125" x="585.5" y="120"/><text fill="#000000" font-family="sans-serif" font-size="14" lengthAdjust="spacing" textLength="72.4814" x="624.1655" y="134.9951">Conductor</text><line style="stroke:#181818;stroke-width:0.5;" x1="586.5" x2="734.3125" y1="140.2969" y2="140.2969"/><text fill="#000000" font-family="sans-serif" font-size="14" lengthAdjust="spacing" textLength="137.8125" x="591.5" y="157.292">nombre = "Marcos"</text></g><g id="elem_Vehiculo"><rect fill="#F1F1F1" height="60.8906" style="stroke:#181818;stroke-width:0.5;" width="161.2422" x="580" y="233"/><text fill="#000000" font-family="sans-serif" font-size="14" lengthAdjust="spacing" textLength="59.9785" x="630.6318" y="247.9951">Vehiculo</text><line style="stroke:#181818;stroke-width:0.5;" x1="581" x2="740.2422" y1="253.2969" y2="253.2969"/><text fill="#000000" font-family="sans-serif" font-size="14" lengthAdjust="spacing" textLength="149.2422" x="586" y="270.292">nombre = "Bus1427"</text><text fill="#000000" font-family="sans-serif" font-size="14" lengthAdjust="spacing" textLength="120.7842" x="586" y="286.5889">tipo = "El&#233;ctrico"</text></g><g id="elem_Ruta"><rect fill="#F1F1F1" height="44.5938" style="stroke:#181818;stroke-width:0.5;" width="136.3389" x="592.5" y="354"/><text fill="#000000" font-family="sans-serif" font-size="14" lengthAdjust="spacing" textLength="32.6689" x="644.335" y="368.9951">Ruta</text><line style="stroke:#181818;stroke-width:0.5;" x1="593.5" x2="727.8389" y1="374.2969" y2="374.2969"/><text fill="#000000" font-family="sans-serif" font-size="14" lengthAdjust="spacing" textLength="124.3389" x="598.5" y="391.292">nombre = "24C1"</text></g><g id="elem_Parada"><rect fill="#F1F1F1" height="44.5938" style="stroke:#181818;stroke-width:0.5;" width="153.8389" x="483.5" y="475"/><text fill="#000000" font-family="sans-serif" font-size="14" lengthAdjust="spacing" textLength="48.8223" x="536.0083" y="489.9951">Parada</text><line style="stroke:#181818;stroke-width:0.5;" x1="484.5" x2="636.3389" y1="495.2969" y2="495.2969"/><text fill="#000000" font-family="sans-serif" font-size="14" lengthAdjust="spacing" textLength="141.8389" x="489.5" y="512.292">nombre = "PCTCan"</text></g><g id="elem_Horario"><rect fill="#F1F1F1" height="77.1875" style="stroke:#181818;stroke-width:0.5;" width="178.3936" x="672.5" y="459"/><text fill="#000000" font-family="sans-serif" font-size="14" lengthAdjust="spacing" textLength="51.6387" x="735.8774" y="473.9951">Horario</text><line style="stroke:#181818;stroke-width:0.5;" x1="673.5" x2="849.8936" y1="479.2969" y2="479.2969"/><text fill="#000000" font-family="sans-serif" font-size="14" lengthAdjust="spacing" textLength="166.3936" x="678.5" y="496.292">tipo = "Horario Verano"</text><text fill="#000000" font-family="sans-serif" font-size="14" lengthAdjust="spacing" textLength="139.4326" x="678.5" y="512.5889">horaSalida = "7:00"</text><text fill="#000000" font-family="sans-serif" font-size="14" lengthAdjust="spacing" textLength="160.8633" x="678.5" y="528.8857">horaLlegada = "23:00"</text></g><g id="elem_Incidencia"><rect fill="#F1F1F1" height="60.8906" style="stroke:#181818;stroke-width:0.5;" width="253.1787" x="771" y="112"/><text fill="#000000" font-family="sans-serif" font-size="14" lengthAdjust="spacing" textLength="71.1279" x="862.0254" y="126.9951">Incidencia</text><line style="stroke:#181818;stroke-width:0.5;" x1="772" x2="1023.1787" y1="132.2969" y2="132.2969"/><text fill="#000000" font-family="sans-serif" font-size="14" lengthAdjust="spacing" textLength="182.9844" x="777" y="149.292">nombre = "Calle Cerrada"</text><text fill="#000000" font-family="sans-serif" font-size="14" lengthAdjust="spacing" textLength="241.1787" x="777" y="165.5889">consecuencia = "Cambio de Ruta"</text></g><!--link Servicio to SistemaDePago--><g id="link_Servicio_SistemaDePago"><path codeLine="50" d="M405.39,52.03 C338.02,71.61 244.8918,98.6762 177.4918,118.2562 " fill="none" id="Servicio-to-SistemaDePago" style="stroke:#181818;stroke-width:1.0;"/><polygon fill="#181818" points="171.73,119.93,181.4886,121.2605,176.5315,118.5351,179.2568,113.5781,171.73,119.93" style="stroke:#181818;stroke-width:1.0;"/></g><!--link Servicio to Flota--><g id="link_Servicio_Flota"><path codeLine="51" d="M479.5,52.17 C479.5,71.72 479.5,94.35 479.5,113.89 " fill="none" id="Servicio-to-Flota" style="stroke:#181818;stroke-width:1.0;"/><polygon fill="#181818" points="479.5,119.89,483.5,110.89,479.5,114.89,475.5,110.89,479.5,119.89" style="stroke:#181818;stroke-width:1.0;"/></g><!--link Servicio to Incidencia--><g id="link_Servicio_Incidencia"><path codeLine="52" d="M560.59,52.03 C624.81,69.09 709.4111,91.5496 780.4111,110.4096 " fill="none" id="Servicio-to-Incidencia" style="stroke:#181818;stroke-width:1.0;"/><polygon fill="#181818" points="786.21,111.95,778.5386,105.7735,781.3776,110.6663,776.4847,113.5054,786.21,111.95" style="stroke:#181818;stroke-width:1.0;"/></g><!--link Servicio to Pasajero--><g id="link_Servicio_Pasajero"><path codeLine="53" d="M444.17,52.17 C412.28,71.72 370.7147,97.2131 338.8547,116.7531 " fill="none" id="Servicio-to-Pasajero" style="stroke:#181818;stroke-width:1.0;"/><polygon fill="#181818" points="333.74,119.89,343.5033,118.5945,338.0022,117.2759,339.3208,111.7749,333.74,119.89" style="stroke:#181818;stroke-width:1.0;"/></g><!--link Servicio to Conductor--><g id="link_Servicio_Conductor"><path codeLine="54" d="M514.83,52.17 C546.72,71.72 588.2853,97.2131 620.1453,116.7531 " fill="none" id="Servicio-to-Conductor" style="stroke:#181818;stroke-width:1.0;"/><polygon fill="#181818" points="625.26,119.89,619.6792,111.7749,620.9978,117.2759,615.4967,118.5945,625.26,119.89" style="stroke:#181818;stroke-width:1.0;"/></g><!--link SistemaDePago to Tarifa--><g id="link_SistemaDePago_Tarifa"><path codeLine="56" d="M115.79,165.05 C131.82,183.94 151.3973,207.0056 169.2473,228.0356 " fill="none" id="SistemaDePago-to-Tarifa" style="stroke:#181818;stroke-width:1.0;"/><polygon fill="#181818" points="173.13,232.61,170.3556,223.16,169.8944,228.798,164.2564,228.3369,173.13,232.61" style="stroke:#181818;stroke-width:1.0;"/></g><!--link Pasajero to Tarifa--><g id="link_Pasajero_Tarifa"><path codeLine="57" d="M280.39,165.05 C264.52,183.94 245.1498,206.9863 227.4798,228.0163 " fill="none" id="Pasajero-to-Tarifa" style="stroke:#181818;stroke-width:1.0;"/><polygon fill="#181818" points="223.62,232.61,232.4721,228.2926,226.8365,228.7819,226.3472,223.1463,223.62,232.61" style="stroke:#181818;stroke-width:1.0;"/></g><!--link Flota to Vehiculo--><g id="link_Flota_Vehiculo"><path codeLine="59" d="M512.28,165.05 C541.11,184 578.3364,208.484 610.3564,229.534 " fill="none" id="Flota-to-Vehiculo" style="stroke:#181818;stroke-width:1.0;"/><polygon fill="#181818" points="615.37,232.83,610.0469,224.5436,611.192,230.0834,605.6522,231.2285,615.37,232.83" style="stroke:#181818;stroke-width:1.0;"/></g><!--link Conductor to Vehiculo--><g id="link_Conductor_Vehiculo"><path codeLine="60" d="M660.5,165.05 C660.5,183.94 660.5,205.58 660.5,226.61 " fill="none" id="Conductor-to-Vehiculo" style="stroke:#181818;stroke-width:1.0;"/><polygon fill="#181818" points="660.5,232.61,664.5,223.61,660.5,227.61,656.5,223.61,660.5,232.61" style="stroke:#181818;stroke-width:1.0;"/></g><!--link Incidencia to Vehiculo--><g id="link_Incidencia_Vehiculo"><path codeLine="61" d="M838.61,173.07 C802.28,191.31 761.2121,211.9379 724.8621,230.1879 " fill="none" id="Incidencia-to-Vehiculo" style="stroke:#181818;stroke-width:1.0;"/><polygon fill="#181818" points="719.5,232.88,729.3379,232.4166,723.9684,230.6366,725.7484,225.2671,719.5,232.88" style="stroke:#181818;stroke-width:1.0;"/></g><!--link Vehiculo to Ruta--><g id="link_Vehiculo_Ruta"><path codeLine="63" d="M660.5,294.25 C660.5,313 660.5,330.79 660.5,347.77 " fill="none" id="Vehiculo-to-Ruta" style="stroke:#181818;stroke-width:1.0;"/><polygon fill="#181818" points="660.5,353.77,664.5,344.77,660.5,348.77,656.5,344.77,660.5,353.77" style="stroke:#181818;stroke-width:1.0;"/></g><!--link Ruta to Parada--><g id="link_Ruta_Parada"><path codeLine="64" d="M642.39,399.05 C624.38,420.48 600.7496,448.5961 582.6696,470.1161 " fill="none" id="Ruta-to-Parada" style="stroke:#181818;stroke-width:1.0;"/><polygon fill="#181818" points="578.81,474.71,587.6619,470.3922,582.0263,470.8818,581.5367,465.2461,578.81,474.71" style="stroke:#181818;stroke-width:1.0;"/></g><!--link Ruta to Horario--><g id="link_Ruta_Horario"><path codeLine="65" d="M678.79,399.05 C692.89,415.66 708.8475,434.4655 725.5675,454.1655 " fill="none" id="Ruta-to-Horario" style="stroke:#181818;stroke-width:1.0;"/><polygon fill="#181818" points="729.45,458.74,726.6759,449.2899,726.2146,454.9279,720.5766,454.4666,729.45,458.74" style="stroke:#181818;stroke-width:1.0;"/></g><!--SRC=[RLBBJiCm4BpxAwpSYqgfg8G41m88940LVTmtpjAwIhpLnk62kF0tIFm5VyANO2Tf4fFcO2cpu_7ixb2oGsNb0lbDAqtoNKZt6SeJHdafeoM3AVR45kMA4p0a5s0ic1Gv4Xz2K7DV5nPpkC4vR8w80E_GWbok5lrB3jQlqB2jtbF3zU0pSGvPL9NsZDwQAuvFpdy_l_iQSoXWXpnyyvhHfD2dtcLaOSWh2opwj9XCMYfBFA0-0IiAk6lSQbLcT4prT3gPHK5hjzdFbxAi5VKrNieZhYRJ-3Hiao4TqkRnCWRJ9zuJkm7Ilw4Uq3MwTLBjQkkm1MJQoJh6x68yxl3733TG5oPdLQLxuS4edQ8xXdPYo3AKCR8tMwifCWMgikPNb3nnHbAi-gvqs-oDHbTXaC9IjRyGwho4-24L8TfkrhqPvDKNwzo9DayzJDJ9ySXXuQ9BIG3tXXFWeasAXtthejfxRTQFg_jlblK7]--></g></svg>