<svg xmlns="http://www.w3.org/2000/svg" xmlns:xlink="http://www.w3.org/1999/xlink" contentStyleType="text/css" height="915px" preserveAspectRatio="none" style="width:1192px;height:915px;background:#FFFFFF;" version="1.1" viewBox="0 0 1192 915" width="1192px" zoomAndPan="magnify"><defs/><g><g id="elem_Servicio"><rect fill="#F1F1F1" height="44.5938" style="stroke:#181818;stroke-width:0.5;" width="313.5469" x="314" y="7"/><text fill="#000000" font-family="sans-serif" font-size="14" lengthAdjust="spacing" textLength="55.583" x="442.9819" y="21.9951">Servicio</text><line style="stroke:#181818;stroke-width:0.5;" x1="315" x2="626.5469" y1="27.2969" y2="27.2969"/><text fill="#000000" font-family="sans-serif" font-size="14" lengthAdjust="spacing" textLength="301.5469" x="320" y="44.292">nombre = "Servicio de Transporte Urbano"</text></g><g id="elem_Pasajero"><rect fill="#F1F1F1" height="44.5938" style="stroke:#181818;stroke-width:0.5;" width="173.5195" x="50" y="204"/><text fill="#000000" font-family="sans-serif" font-size="14" lengthAdjust="spacing" textLength="59.7188" x="106.9004" y="218.9951">Pasajero</text><line style="stroke:#181818;stroke-width:0.5;" x1="51" x2="222.5195" y1="224.2969" y2="224.2969"/><text fill="#000000" font-family="sans-serif" font-size="14" lengthAdjust="spacing" textLength="161.5195" x="56" y="241.292">nombre = "Juan P&#233;rez"</text></g><g id="elem_Conductor"><rect fill="#F1F1F1" height="44.5938" style="stroke:#181818;stroke-width:0.5;" width="184.3887" x="384" y="433"/><text fill="#000000" font-family="sans-serif" font-size="14" lengthAdjust="spacing" textLength="72.4814" x="439.9536" y="447.9951">Conductor</text><line style="stroke:#181818;stroke-width:0.5;" x1="385" x2="567.3887" y1="453.2969" y2="453.2969"/><text fill="#000000" font-family="sans-serif" font-size="14" lengthAdjust="spacing" textLength="172.3887" x="390" y="470.292">nombre = "Mar&#237;a L&#243;pez"</text></g><g id="elem_SistemaDePago"><rect fill="#F1F1F1" height="44.5938" style="stroke:#181818;stroke-width:0.5;" width="188.3672" x="811" y="129"/><text fill="#000000" font-family="sans-serif" font-size="14" lengthAdjust="spacing" textLength="110.2568" x="850.0552" y="143.9951">SistemaDePago</text><line style="stroke:#181818;stroke-width:0.5;" x1="812" x2="998.3672" y1="149.2969" y2="149.2969"/><text fill="#000000" font-family="sans-serif" font-size="14" lengthAdjust="spacing" textLength="176.3672" x="817" y="166.292">nombre = "Sistema TUS"</text></g><g id="elem_Tarifa"><rect fill="#F1F1F1" height="60.8906" style="stroke:#181818;stroke-width:0.5;" width="167.9756" x="803" y="279"/><text fill="#000000" font-family="sans-serif" font-size="14" lengthAdjust="spacing" textLength="40.2842" x="866.8457" y="293.9951">Tarifa</text><line style="stroke:#181818;stroke-width:0.5;" x1="804" x2="969.9756" y1="299.2969" y2="299.2969"/><text fill="#000000" font-family="sans-serif" font-size="14" lengthAdjust="spacing" textLength="155.9756" x="809" y="316.292">tipo = "Tarifa Normal"</text><text fill="#000000" font-family="sans-serif" font-size="14" lengthAdjust="spacing" textLength="108.0898" x="809" y="332.5889">precio = "0.6&#8364;"</text></g><g id="elem_Abono"><rect fill="#F1F1F1" height="60.8906" style="stroke:#181818;stroke-width:0.5;" width="179.46" x="1006.5" y="279"/><text fill="#000000" font-family="sans-serif" font-size="14" lengthAdjust="spacing" textLength="44.4678" x="1073.9961" y="293.9951">Abono</text><line style="stroke:#181818;stroke-width:0.5;" x1="1007.5" x2="1184.96" y1="299.2969" y2="299.2969"/><text fill="#000000" font-family="sans-serif" font-size="14" lengthAdjust="spacing" textLength="167.46" x="1012.5" y="316.292">tipo = "Abono Mensual"</text><text fill="#000000" font-family="sans-serif" font-size="14" lengthAdjust="spacing" textLength="103.6396" x="1012.5" y="332.5889">precio = "25&#8364;"</text></g><g id="elem_Flota"><rect fill="#F1F1F1" height="44.5938" style="stroke:#181818;stroke-width:0.5;" width="202.4971" x="229" y="204"/><text fill="#000000" font-family="sans-serif" font-size="14" lengthAdjust="spacing" textLength="34.5762" x="312.9604" y="218.9951">Flota</text><line style="stroke:#181818;stroke-width:0.5;" x1="230" x2="430.4971" y1="224.2969" y2="224.2969"/><text fill="#000000" font-family="sans-serif" font-size="14" lengthAdjust="spacing" textLength="190.4971" x="235" y="241.292">nombre = "Flota de Buses"</text></g><g id="elem_Vehiculo"><rect fill="#F1F1F1" height="60.8906" style="stroke:#181818;stroke-width:0.5;" width="132.7842" x="297.5" y="571"/><text fill="#000000" font-family="sans-serif" font-size="14" lengthAdjust="spacing" textLength="59.9785" x="333.9028" y="585.9951">Vehiculo</text><line style="stroke:#181818;stroke-width:0.5;" x1="298.5" x2="429.2842" y1="591.2969" y2="591.2969"/><text fill="#000000" font-family="sans-serif" font-size="14" lengthAdjust="spacing" textLength="98.7793" x="303.5" y="608.292">id = "Bus123"</text><text fill="#000000" font-family="sans-serif" font-size="14" lengthAdjust="spacing" textLength="120.7842" x="303.5" y="624.5889">tipo = "El&#233;ctrico"</text></g><g id="elem_Ruta"><rect fill="#F1F1F1" height="44.5938" style="stroke:#181818;stroke-width:0.5;" width="173.458" x="271.5" y="709"/><text fill="#000000" font-family="sans-serif" font-size="14" lengthAdjust="spacing" textLength="32.6689" x="341.8945" y="723.9951">Ruta</text><line style="stroke:#181818;stroke-width:0.5;" x1="272.5" x2="443.958" y1="729.2969" y2="729.2969"/><text fill="#000000" font-family="sans-serif" font-size="14" lengthAdjust="spacing" textLength="161.458" x="277.5" y="746.292">nombre = "Ruta 24C1"</text></g><g id="elem_Parada1"><rect fill="#F1F1F1" height="44.5938" style="stroke:#181818;stroke-width:0.5;" width="200.1865" x="498" y="847"/><text fill="#000000" font-family="sans-serif" font-size="14" lengthAdjust="spacing" textLength="57.7295" x="569.2285" y="861.9951">Parada1</text><line style="stroke:#181818;stroke-width:0.5;" x1="499" x2="697.1865" y1="867.2969" y2="867.2969"/><text fill="#000000" font-family="sans-serif" font-size="14" lengthAdjust="spacing" textLength="188.1865" x="504" y="884.292">nombre = "Parada Centro"</text></g><g id="elem_Parada2"><rect fill="#F1F1F1" height="44.5938" style="stroke:#181818;stroke-width:0.5;" width="212.3477" x="251" y="847"/><text fill="#000000" font-family="sans-serif" font-size="14" lengthAdjust="spacing" textLength="57.7295" x="328.3091" y="861.9951">Parada2</text><line style="stroke:#181818;stroke-width:0.5;" x1="252" x2="462.3477" y1="867.2969" y2="867.2969"/><text fill="#000000" font-family="sans-serif" font-size="14" lengthAdjust="spacing" textLength="200.3477" x="257" y="884.292">nombre = "Parada Estaci&#243;n"</text></g><g id="elem_Horario"><rect fill="#F1F1F1" height="77.1875" style="stroke:#181818;stroke-width:0.5;" width="200.3438" x="7" y="831"/><text fill="#000000" font-family="sans-serif" font-size="14" lengthAdjust="spacing" textLength="51.6387" x="81.3525" y="845.9951">Horario</text><line style="stroke:#181818;stroke-width:0.5;" x1="8" x2="206.3438" y1="851.2969" y2="851.2969"/><text fill="#000000" font-family="sans-serif" font-size="14" lengthAdjust="spacing" textLength="188.3438" x="13" y="868.292">tipo = "Horario de Verano"</text><text fill="#000000" font-family="sans-serif" font-size="14" lengthAdjust="spacing" textLength="148.3398" x="13" y="884.5889">horaSalida = "07:00"</text><text fill="#000000" font-family="sans-serif" font-size="14" lengthAdjust="spacing" textLength="160.8633" x="13" y="900.8857">horaLlegada = "22:00"</text></g><g id="elem_GestionDeIncidencias"><rect fill="#F1F1F1" height="44.5938" style="stroke:#181818;stroke-width:0.5;" width="251.2305" x="524.5" y="129"/><text fill="#000000" font-family="sans-serif" font-size="14" lengthAdjust="spacing" textLength="151.3887" x="574.4209" y="143.9951">GestionDeIncidencias</text><line style="stroke:#181818;stroke-width:0.5;" x1="525.5" x2="774.7305" y1="149.2969" y2="149.2969"/><text fill="#000000" font-family="sans-serif" font-size="14" lengthAdjust="spacing" textLength="239.2305" x="530.5" y="166.292">nombre = "Gestor de Incidencias"</text></g><g id="elem_Incidencia"><rect fill="#F1F1F1" height="60.8906" style="stroke:#181818;stroke-width:0.5;" width="202.3945" x="543" y="279"/><text fill="#000000" font-family="sans-serif" font-size="14" lengthAdjust="spacing" textLength="71.1279" x="608.6333" y="293.9951">Incidencia</text><line style="stroke:#181818;stroke-width:0.5;" x1="544" x2="744.3945" y1="299.2969" y2="299.2969"/><text fill="#000000" font-family="sans-serif" font-size="14" lengthAdjust="spacing" textLength="190.3945" x="549" y="316.292">tipo = "Aver&#237;a en el motor"</text><text fill="#000000" font-family="sans-serif" font-size="14" lengthAdjust="spacing" textLength="178.3018" x="549" y="332.5889">estado = "En reparaci&#243;n"</text></g><g id="elem_Viaje"><rect fill="#F1F1F1" height="77.1875" style="stroke:#181818;stroke-width:0.5;" width="165.5625" x="98" y="417"/><text fill="#000000" font-family="sans-serif" font-size="14" lengthAdjust="spacing" textLength="34.5488" x="163.5068" y="431.9951">Viaje</text><line style="stroke:#181818;stroke-width:0.5;" x1="99" x2="262.5625" y1="437.2969" y2="437.2969"/><text fill="#000000" font-family="sans-serif" font-size="14" lengthAdjust="spacing" textLength="153.5625" x="104" y="454.292">fecha = "2024-11-15"</text><text fill="#000000" font-family="sans-serif" font-size="14" lengthAdjust="spacing" textLength="142.6729" x="104" y="470.5889">horaInicio = "08:30"</text><text fill="#000000" font-family="sans-serif" font-size="14" lengthAdjust="spacing" textLength="141.292" x="104" y="486.8857">estado = "En curso"</text></g><!--link Servicio to Pasajero--><g id="link_Servicio_Pasajero"><path codeLine="69" d="M433.98,52.11 C369.69,89.65 243.3415,163.4148 179.1115,200.9148 " fill="none" id="Servicio-to-Pasajero" style="stroke:#181818;stroke-width:1.0;"/><polygon fill="#181818" points="173.93,203.94,183.7191,202.8566,178.2479,201.419,179.6855,195.9479,173.93,203.94" style="stroke:#181818;stroke-width:1.0;"/><text fill="#000000" font-family="sans-serif" font-size="13" lengthAdjust="spacing" textLength="32.9443" x="382" y="95.0669">tiene</text></g><!--link Servicio to Conductor--><g id="link_Servicio_Conductor"><path codeLine="70" d="M471.25,52.11 C472.11,124.84 474.819,354.2704 475.679,426.9304 " fill="none" id="Servicio-to-Conductor" style="stroke:#181818;stroke-width:1.0;"/><polygon fill="#181818" points="475.75,432.93,479.6432,423.8833,475.6908,427.9304,471.6438,423.978,475.75,432.93" style="stroke:#181818;stroke-width:1.0;"/><text fill="#000000" font-family="sans-serif" font-size="13" lengthAdjust="spacing" textLength="32.9443" x="475" y="231.0669">tiene</text></g><!--link Servicio to SistemaDePago--><g id="link_Servicio_SistemaDePago"><path codeLine="71" d="M548.84,52.02 C627.51,73.77 742.5968,105.6017 821.2968,127.3517 " fill="none" id="Servicio-to-SistemaDePago" style="stroke:#181818;stroke-width:1.0;"/><polygon fill="#181818" points="827.08,128.95,819.4707,122.6971,822.2607,127.6181,817.3397,130.408,827.08,128.95" style="stroke:#181818;stroke-width:1.0;"/></g><!--link Servicio to Flota--><g id="link_Servicio_Flota"><path codeLine="72" d="M455.37,52.11 C428.27,89.6 376.3655,161.3778 349.2155,198.9278 " fill="none" id="Servicio-to-Flota" style="stroke:#181818;stroke-width:1.0;"/><polygon fill="#181818" points="345.7,203.79,354.2148,198.8404,348.6296,199.7382,347.7319,194.153,345.7,203.79" style="stroke:#181818;stroke-width:1.0;"/></g><!--link Servicio to GestionDeIncidencias--><g id="link_Servicio_GestionDeIncidencias"><path codeLine="73" d="M503.42,52.23 C535.86,73.98 580.486,103.8994 612.846,125.5894 " fill="none" id="Servicio-to-GestionDeIncidencias" style="stroke:#181818;stroke-width:1.0;"/><polygon fill="#181818" points="617.83,128.93,612.5811,120.5964,613.6767,126.1461,608.1269,127.2417,617.83,128.93" style="stroke:#181818;stroke-width:1.0;"/></g><!--link Pasajero to Viaje--><g id="link_Pasajero_Viaje"><path codeLine="75" d="M141.22,249.27 C148.7,287.88 163.2483,362.9296 172.5283,410.8096 " fill="none" id="Pasajero-to-Viaje" style="stroke:#181818;stroke-width:1.0;"/><polygon fill="#181818" points="173.67,416.7,175.8844,407.1033,172.7186,411.7913,168.0306,408.6255,173.67,416.7" style="stroke:#181818;stroke-width:1.0;"/><text fill="#000000" font-family="sans-serif" font-size="13" lengthAdjust="spacing" textLength="43.3228" x="160" y="314.0669">realiza</text></g><!--link Conductor to Vehiculo--><g id="link_Conductor_Vehiculo"><path codeLine="76" d="M459.23,478.06 C440.07,502.69 412.2734,538.4237 390.7934,566.0437 " fill="none" id="Conductor-to-Vehiculo" style="stroke:#181818;stroke-width:1.0;"/><polygon fill="#181818" points="387.11,570.78,395.7926,566.1312,390.1795,566.8331,389.4776,561.2199,387.11,570.78" style="stroke:#181818;stroke-width:1.0;"/><text fill="#000000" font-family="sans-serif" font-size="13" lengthAdjust="spacing" textLength="54.9771" x="425" y="537.0669">conduce</text></g><!--link Viaje to Vehiculo--><g id="link_Viaje_Vehiculo"><path codeLine="78" d="M224.19,494.29 C241.58,509.16 261.99,526.19 281,541 C293.87,551.02 303.3258,558.045 316.4158,567.385 " fill="none" id="Viaje-to-Vehiculo" style="stroke:#181818;stroke-width:1.0;"/><polygon fill="#181818" points="321.3,570.87,316.2971,562.3865,317.2299,567.9659,311.6504,568.8987,321.3,570.87" style="stroke:#181818;stroke-width:1.0;"/><text fill="#000000" font-family="sans-serif" font-size="13" lengthAdjust="spacing" textLength="22.9785" x="282" y="537.0669">usa</text></g><!--link Viaje to Ruta--><g id="link_Viaje_Ruta"><path codeLine="79" d="M188.57,494.01 C197.41,531.41 214.69,589.29 244,632 C265.53,663.38 294.5283,687.4356 319.7583,705.3556 " fill="none" id="Viaje-to-Ruta" style="stroke:#181818;stroke-width:1.0;"/><polygon fill="#181818" points="324.65,708.83,319.6287,700.3573,320.5736,705.9347,314.9962,706.8795,324.65,708.83" style="stroke:#181818;stroke-width:1.0;"/><text fill="#000000" font-family="sans-serif" font-size="13" lengthAdjust="spacing" textLength="34.874" x="245" y="606.0669">sigue</text></g><!--link Viaje to Horario--><g id="link_Viaje_Horario"><path codeLine="80" d="M174.24,494.15 C160.16,572.52 128.9212,746.4646 114.8312,824.8746 " fill="none" id="Viaje-to-Horario" style="stroke:#181818;stroke-width:1.0;"/><polygon fill="#181818" points="113.77,830.78,119.2987,822.6293,114.6543,825.8588,111.4248,821.2144,113.77,830.78" style="stroke:#181818;stroke-width:1.0;"/><text fill="#000000" font-family="sans-serif" font-size="13" lengthAdjust="spacing" textLength="96.4019" x="145" y="675.0669">programadoEn</text></g><!--link SistemaDePago to Tarifa--><g id="link_SistemaDePago_Tarifa"><path codeLine="82" d="M902.5,174.19 C899.36,201.4 894.6468,242.2194 891.1268,272.7694 " fill="none" id="SistemaDePago-to-Tarifa" style="stroke:#181818;stroke-width:1.0;"/><polygon fill="#181818" points="890.44,278.73,895.4439,270.247,891.0123,273.7629,887.4965,269.3313,890.44,278.73" style="stroke:#181818;stroke-width:1.0;"/></g><!--link SistemaDePago to Abono--><g id="link_SistemaDePago_Abono"><path codeLine="83" d="M931.56,174.19 C964.87,201.4 1017.5032,244.3843 1054.9032,274.9343 " fill="none" id="SistemaDePago-to-Abono" style="stroke:#181818;stroke-width:1.0;"/><polygon fill="#181818" points="1059.55,278.73,1055.1103,269.9386,1055.6777,275.5669,1050.0494,276.1343,1059.55,278.73" style="stroke:#181818;stroke-width:1.0;"/></g><!--link Flota to Vehiculo--><g id="link_Flota_Vehiculo"><path codeLine="85" d="M331.97,249.17 C337.76,312.6 354.1152,492.0648 360.7452,564.7748 " fill="none" id="Flota-to-Vehiculo" style="stroke:#181818;stroke-width:1.0;"/><polygon fill="#181818" points="361.29,570.75,364.4562,561.424,360.836,565.7707,356.4893,562.1504,361.29,570.75" style="stroke:#181818;stroke-width:1.0;"/></g><!--link Vehiculo to Ruta--><g id="link_Vehiculo_Ruta"><path codeLine="87" d="M362.61,632.19 C361.51,655.67 360.2817,681.9166 359.2917,702.9766 " fill="none" id="Vehiculo-to-Ruta" style="stroke:#181818;stroke-width:1.0;"/><polygon fill="#181818" points="359.01,708.97,363.4282,700.1678,359.2448,703.9755,355.437,699.7921,359.01,708.97" style="stroke:#181818;stroke-width:1.0;"/><text fill="#000000" font-family="sans-serif" font-size="13" lengthAdjust="spacing" textLength="67.9072" x="363" y="675.0669">asignadoA</text></g><!--link Ruta to Parada1--><g id="link_Ruta_Parada1"><path codeLine="88" d="M396.03,754.05 C440.84,779.44 509.6302,818.4213 554.5302,843.8713 " fill="none" id="Ruta-to-Parada1" style="stroke:#181818;stroke-width:1.0;"/><polygon fill="#181818" points="559.75,846.83,553.8927,838.9121,555.4002,844.3644,549.9479,845.8719,559.75,846.83" style="stroke:#181818;stroke-width:1.0;"/><text fill="#000000" font-family="sans-serif" font-size="13" lengthAdjust="spacing" textLength="46.541" x="479" y="797.0669">incluye</text></g><!--link Ruta to Parada2--><g id="link_Ruta_Parada2"><path codeLine="89" d="M357.84,754.05 C357.66,779.37 357.3948,815.1302 357.2048,840.6002 " fill="none" id="Ruta-to-Parada2" style="stroke:#181818;stroke-width:1.0;"/><polygon fill="#181818" points="357.16,846.6,361.227,837.6301,357.1973,841.6001,353.2272,837.5704,357.16,846.6" style="stroke:#181818;stroke-width:1.0;"/><text fill="#000000" font-family="sans-serif" font-size="13" lengthAdjust="spacing" textLength="46.541" x="359" y="797.0669">incluye</text></g><!--link Ruta to Horario--><g id="link_Ruta_Horario"><path codeLine="90" d="M318.23,754.05 C280.21,774.65 227.3759,803.2825 181.7159,828.0125 " fill="none" id="Ruta-to-Horario" style="stroke:#181818;stroke-width:1.0;"/><polygon fill="#181818" points="176.44,830.87,186.2588,830.101,180.8366,828.4888,182.4488,823.0665,176.44,830.87" style="stroke:#181818;stroke-width:1.0;"/><text fill="#000000" font-family="sans-serif" font-size="13" lengthAdjust="spacing" textLength="56.2847" x="264" y="797.0669">contiene</text></g><!--link GestionDeIncidencias to Incidencia--><g id="link_GestionDeIncidencias_Incidencia"><path codeLine="92" d="M649.17,174.19 C648.12,201.4 646.5496,242.1844 645.3796,272.7344 " fill="none" id="GestionDeIncidencias-to-Incidencia" style="stroke:#181818;stroke-width:1.0;"/><polygon fill="#181818" points="645.15,278.73,649.4915,269.8897,645.3413,273.7337,641.4974,269.5835,645.15,278.73" style="stroke:#181818;stroke-width:1.0;"/></g><!--link Incidencia to Vehiculo--><g id="link_Incidencia_Vehiculo"><path codeLine="93" d="M641.63,340.03 C637.03,379.48 623.63,449.54 585,494 C544.7,540.38 485.3701,566.4888 436.2601,582.0388 " fill="none" id="Incidencia-to-Vehiculo" style="stroke:#181818;stroke-width:1.0;"/><polygon fill="#181818" points="430.54,583.85,440.3276,584.9466,435.3068,582.3407,437.9127,577.3198,430.54,583.85" style="stroke:#181818;stroke-width:1.0;"/><text fill="#000000" font-family="sans-serif" font-size="13" lengthAdjust="spacing" textLength="40.752" x="627" y="460.0669">afecta</text></g><!--link Incidencia to Ruta--><g id="link_Incidencia_Ruta"><path codeLine="94" d="M659.65,340 C677.3,377.6 700.54,443.72 676,494 C622.14,604.37 494.2775,673.4065 418.4775,706.5465 " fill="none" id="Incidencia-to-Ruta" style="stroke:#181818;stroke-width:1.0;"/><polygon fill="#181818" points="412.98,708.95,422.8287,709.0097,417.5613,706.947,419.624,701.6797,412.98,708.95" style="stroke:#181818;stroke-width:1.0;"/><text fill="#000000" font-family="sans-serif" font-size="13" lengthAdjust="spacing" textLength="52.7046" x="659" y="537.0669">impacta</text></g><!--link Incidencia to Conductor--><g id="link_Incidencia_Conductor"><path codeLine="95" d="M569.3,340.05 C553.9,348.28 538.57,358.25 526,370 C507.07,387.69 495.4397,408.6929 487.1297,427.2729 " fill="none" id="Incidencia-to-Conductor" style="stroke:#181818;stroke-width:1.0;"/><polygon fill="#181818" points="484.68,432.75,492.0059,426.1674,486.7214,428.1857,484.7031,422.9012,484.68,432.75" style="stroke:#181818;stroke-width:1.0;"/><text fill="#000000" font-family="sans-serif" font-size="13" lengthAdjust="spacing" textLength="85.3125" x="527" y="383.0669">reportadaPor</text></g><!--SRC=[TLHBRjim4Dtp58JtBYmbQGi1BP0wRfiYAOpQyNvCJMm64YcGL82cwAQt2T2kSWJVf2VfIBGiwbCl37ZUcvd7DpFMsmSKZg_GF4eXDV_1E7sKphS6-Ji-EG4fyhK1PGjj7F8ximMb9-mdOzfNM8A51pJ32bzAK7nvU3Ru5FBdMgMbSDhq-RTW3d-0tnnUYcx6Ibg7ELpX4dOZGZtArtUhC6aDHjx3aUraeIlkCVXLcnooIGqL1gjN4ZXxzVhlhzzXZSkjLhfNmiTkKTboM2A-w5Nuc6a70ya-IiP-A2tQaB_1lHHbrZILQKKdLXIVJJeo5jdXMJWZHMSMtygHRdKmFfz7tQaPI24Qa7sSpr4veuS9yVyI5jQ1a8SN5UPyreOCxplOHEdz6pJrDbNmdi8ho2GLguRn9fdDMk0cmnru98vhfEto2QsJMbtXjH8oHVe2Ev1PaRIfUWQii4eRxW_y4UkzHCKnuxccCbuNLOJK3qDnWmKPCN1W8-asZWNlKUpz2sRn-JIAfj55-y1h9PirV9kSpKOwYD9OFv7JQKwdxzlpIqWnAkoYfsCRXpkNrONg7Us6nencx2IWelZt9cG7JV89MDk_HfljJhYe0MJCP_JGqa80r0kSS2jt9GRXPeyIEa2zCv2JLmj5zdJ-BYgcF_iHe3vcnlmzXXf8LwCcK00aGL6NIrO7lFt-ZX8kbSZAxzY7uZ6ebKu- -BcmqJMkoErl5Ynfpp6WxN83mb6tp0iOGSFbeFsb_tVIkzJc7m00]--></g></svg>